<svg xmlns="http://www.w3.org/2000/svg" xmlns:xlink="http://www.w3.org/1999/xlink" width="800" height="521.04"><rect width="800" height="521.04" rx="0" ry="0" class="a"/><svg height="521.04" viewBox="0 0 80 52.104" width="800" xmlns="http://www.w3.org/2000/svg" xmlns:xlink="http://www.w3.org/1999/xlink"><style>@keyframes f{0%{transform:translateX(0)}7.6%{transform:translateX(-160px)}33.2%{transform:translateX(-240px)}35%{transform:translateX(-320px)}37.7%{transform:translateX(-400px)}40.3%{transform:translateX(-480px)}47.7%{transform:translateX(-560px)}55.5%{transform:translateX(-640px)}55.9%{transform:translateX(-720px)}81.8%{transform:translateX(-800px)}to{transform:translateX(-880px)}}.a{fill:#282d35}.c{fill:#b9c0cb;white-space:pre}</style><g font-family="Monaco,Consolas,Menlo,'Bitstream Vera Sans Mono','Powerline Symbols',monospace" font-size="1.67"><defs><symbol id="1"><text y="1.67" class="c">[eric@localhost</text><text x="16.032" y="1.67" class="c">~]$</text></symbol><symbol id="2"><text y="1.67" class="c">[eric@localhost</text><text x="16.032" y="1.67" class="c">~]$</text><text x="20.04" y="1.67" class="c">hello</text></symbol><symbol id="3"><text y="1.67" class="c">bash:</text><text x="6.012" y="1.67" class="c">hello:</text><text x="13.026" y="1.67" class="c">command</text><text x="21.042" y="1.67" class="c">not</text><text x="25.05" y="1.67" class="c">found...</text></symbol><symbol id="a"><path fill="transparent" d="M0 0h80v24H0z"/></symbol><symbol id="b"><path fill="#6f7683" d="M0 0h1.102v2.171H0z"/></symbol></defs><path class="a" d="M0 0h80v52.104H0z"/><g style="animation-duration:5.151971s;animation-iteration-count:infinite;animation-name:f;animation-timing-function:steps(1,end)"><svg width="960"><svg><use xlink:href="#a"/><use xlink:href="#b" x="-.004"/></svg><svg x="80"><use xlink:href="#a"/><use xlink:href="#b" x="-.004"/></svg><svg x="160"><use xlink:href="#a"/><use xlink:href="#b" x="19.996"/><use xlink:href="#1"/></svg><svg x="240"><use xlink:href="#a"/><use xlink:href="#b" x="20.996"/><text y="1.67" class="c">[eric@localhost</text><text x="16.032" y="1.67" class="c">~]$</text><text x="20.04" y="1.67" class="c">h</text></svg><svg x="320"><use xlink:href="#a"/><use xlink:href="#b" x="21.996"/><text y="1.67" class="c">[eric@localhost</text><text x="16.032" y="1.67" class="c">~]$</text><text x="20.04" y="1.67" class="c">he</text></svg><svg x="400"><use xlink:href="#a"/><use xlink:href="#b" x="22.996"/><text y="1.67" class="c">[eric@localhost</text><text x="16.032" y="1.67" class="c">~]$</text><text x="20.04" y="1.67" class="c">hel</text></svg><svg x="480"><use xlink:href="#a"/><use xlink:href="#b" x="23.996"/><text y="1.67" class="c">[eric@localhost</text><text x="16.032" y="1.67" class="c">~]$</text><text x="20.04" y="1.67" class="c">hell</text></svg><svg x="560"><use xlink:href="#a"/><use xlink:href="#b" x="24.996"/><use xlink:href="#2"/></svg><svg x="640"><use xlink:href="#a"/><use xlink:href="#b" x="-.004" y="2.146"/><use xlink:href="#2"/></svg><svg x="720"><use xlink:href="#a"/><use xlink:href="#b" x="-.004" y="4.317"/><use xlink:href="#2"/><use xlink:href="#3" y="2.171"/></svg><svg x="800"><use xlink:href="#a"/><use xlink:href="#b" x="19.996" y="4.317"/><use xlink:href="#2"/><use xlink:href="#3" y="2.171"/><use xlink:href="#1" y="4.342"/></svg><svg x="880"><use xlink:href="#a"/><use xlink:href="#b" x="-.004" y="6.488"/><use xlink:href="#2"/><use xlink:href="#3" y="2.171"/><text y="6.012" class="c">[eric@localhost</text><text x="16.032" y="6.012" class="c">~]$</text><text x="20.04" y="6.012" class="c">exit</text></svg></svg></g></g></svg></svg>