<svg xmlns="http://www.w3.org/2000/svg" xmlns:xlink="http://www.w3.org/1999/xlink" width="840" height="581.04"><rect width="840" height="581.04" rx="5" ry="5" class="a"/><svg y="0%" x="0%"><circle cx="20" cy="20" r="6" fill="#ff5f58"/><circle cx="40" cy="20" r="6" fill="#ffbd2e"/><circle cx="60" cy="20" r="6" fill="#18c132"/></svg><svg height="521.04" viewBox="0 0 80 52.104" width="800" x="15" xmlns="http://www.w3.org/2000/svg" xmlns:xlink="http://www.w3.org/1999/xlink" y="50"><style>@keyframes i{0%{transform:translateX(0)}.27%{transform:translateX(-160px)}5.35%{transform:translateX(-240px)}6.2%{transform:translateX(-320px)}6.86%{transform:translateX(-400px)}7.01%{transform:translateX(-480px)}7.49%{transform:translateX(-560px)}8.07%{transform:translateX(-640px)}8.45%{transform:translateX(-720px)}8.95%{transform:translateX(-800px)}9.71%{transform:translateX(-880px)}9.86%{transform:translateX(-960px)}10.13%{transform:translateX(-1040px)}10.39%{transform:translateX(-1120px)}10.54%{transform:translateX(-1200px)}10.78%{transform:translateX(-1280px)}11.02%{transform:translateX(-1360px)}11.56%{transform:translateX(-1440px)}11.78%{transform:translateX(-1520px)}12.11%{transform:translateX(-1600px)}12.33%{transform:translateX(-1680px)}12.84%{transform:translateX(-1760px)}14.87%{transform:translateX(-1840px)}15.07%{transform:translateX(-1920px)}18.01%{transform:translateX(-2000px)}18.05%{transform:translateX(-2080px)}18.06%{transform:translateX(-2160px)}23.97%{transform:translateX(-2240px)}24.22%{transform:translateX(-2320px)}25.06%{transform:translateX(-2480px)}26.2%{transform:translateX(-2560px)}27.33%{transform:translateX(-2640px)}27.79%{transform:translateX(-2720px)}28.37%{transform:translateX(-2800px)}28.66%{transform:translateX(-2880px)}28.86%{transform:translateX(-2960px)}30.53%{transform:translateX(-3040px)}30.92%{transform:translateX(-3120px)}31.03%{transform:translateX(-3200px)}31.33%{transform:translateX(-3280px)}31.82%{transform:translateX(-3360px)}32.11%{transform:translateX(-3440px)}32.48%{transform:translateX(-3520px)}32.77%{transform:translateX(-3600px)}33.16%{transform:translateX(-3680px)}33.6%{transform:translateX(-3760px)}33.76%{transform:translateX(-3840px)}34.12%{transform:translateX(-3920px)}34.93%{transform:translateX(-4000px)}35.28%{transform:translateX(-4080px)}35.8%{transform:translateX(-4160px)}35.95%{transform:translateX(-4240px)}36.19%{transform:translateX(-4320px)}36.44%{transform:translateX(-4400px)}36.64%{transform:translateX(-4480px)}36.82%{transform:translateX(-4560px)}40.38%{transform:translateX(-4640px)}41.95%{transform:translateX(-4720px)}41.99%{transform:translateX(-4800px)}42%{transform:translateX(-4880px)}44.41%{transform:translateX(-4960px)}44.63%{transform:translateX(-5040px)}45.3%{transform:translateX(-5120px)}45.5%{transform:translateX(-5200px)}45.99%{transform:translateX(-5280px)}46.64%{transform:translateX(-5360px)}46.89%{transform:translateX(-5440px)}47.2%{transform:translateX(-5520px)}47.95%{transform:translateX(-5600px)}48.22%{transform:translateX(-5680px)}48.44%{transform:translateX(-5760px)}48.71%{transform:translateX(-5840px)}49.01%{transform:translateX(-5920px)}49.26%{transform:translateX(-6000px)}49.56%{transform:translateX(-6080px)}50.51%{transform:translateX(-6160px)}50.62%{transform:translateX(-6240px)}50.65%{transform:translateX(-6400px)}53.35%{transform:translateX(-6480px)}53.66%{transform:translateX(-6560px)}53.82%{transform:translateX(-6640px)}54.26%{transform:translateX(-6720px)}54.47%{transform:translateX(-6800px)}54.85%{transform:translateX(-6880px)}55.95%{transform:translateX(-6960px)}56.32%{transform:translateX(-7040px)}57.3%{transform:translateX(-7120px)}85.59%{transform:translateX(-7200px)}85.6%{transform:translateX(-7280px)}87.47%{transform:translateX(-7360px)}87.81%{transform:translateX(-7440px)}88.5%{transform:translateX(-7520px)}88.72%{transform:translateX(-7600px)}89.16%{transform:translateX(-7680px)}89.74%{transform:translateX(-7760px)}89.96%{transform:translateX(-7840px)}90.14%{transform:translateX(-7920px)}90.56%{transform:translateX(-8000px)}90.82%{transform:translateX(-8080px)}91.15%{transform:translateX(-8160px)}91.61%{transform:translateX(-8240px)}92.01%{transform:translateX(-8320px)}92.48%{transform:translateX(-8400px)}92.87%{transform:translateX(-8480px)}94.43%{transform:translateX(-8560px)}94.46%{transform:translateX(-8640px)}to{transform:translateX(-8720px)}}.a{fill:#282d35}.f{fill:#b9c0cb;white-space:pre}</style><g font-family="Monaco,Consolas,Menlo,'Bitstream Vera Sans Mono','Powerline Symbols',monospace" font-size="1.67"><defs><symbol id="16"><text y="1.67" class="f">[eric@localhost</text><text x="16.032" y="1.67" class="f">~]$</text><text x="20.04" y="1.67" class="f">etcdctl</text><text x="28.056" y="1.67" class="f">put</text><text x="32.064" y="1.67" class="f">foo</text><text x="36.072" y="1.67" class="f">bar</text><text x="40.08" y="1.67" class="f">--lease</text></symbol><symbol id="1"><text y="1.67" class="f">[eric@localhost</text><text x="16.032" y="1.67" class="f">~]$</text></symbol><symbol id="3"><text y="1.67" class="f">[eric@localhost</text><text x="16.032" y="1.67" class="f">~]$</text><text x="20.04" y="1.67" class="f">et</text></symbol><symbol id="4"><text y="1.67" class="f">[eric@localhost</text><text x="16.032" y="1.67" class="f">~]$</text><text x="20.04" y="1.67" class="f">etc</text></symbol><symbol id="5"><text y="1.67" class="f">[eric@localhost</text><text x="16.032" y="1.67" class="f">~]$</text><text x="20.04" y="1.67" class="f">etcd</text></symbol><symbol id="6"><text y="1.67" class="f">[eric@localhost</text><text x="16.032" y="1.67" class="f">~]$</text><text x="20.04" y="1.67" class="f">etcdc</text></symbol><symbol id="7"><text y="1.67" class="f">[eric@localhost</text><text x="16.032" y="1.67" class="f">~]$</text><text x="20.04" y="1.67" class="f">etcdct</text></symbol><symbol id="8"><text y="1.67" class="f">[eric@localhost</text><text x="16.032" y="1.67" class="f">~]$</text><text x="20.04" y="1.67" class="f">etcdctl</text></symbol><symbol id="9"><text y="1.67" class="f">[eric@localhost</text><text x="16.032" y="1.67" class="f">~]$</text><text x="20.04" y="1.67" class="f">etcdctl</text><text x="28.056" y="1.67" class="f">lease</text></symbol><symbol id="10"><text y="1.67" class="f">[eric@localhost</text><text x="16.032" y="1.67" class="f">~]$</text><text x="20.04" y="1.67" class="f">etcdctl</text><text x="28.056" y="1.67" class="f">lease</text><text x="34.068" y="1.67" class="f">grant</text></symbol><symbol id="11"><text y="1.67" class="f">[eric@localhost</text><text x="16.032" y="1.67" class="f">~]$</text><text x="20.04" y="1.67" class="f">etcdctl</text><text x="28.056" y="1.67" class="f">lease</text><text x="34.068" y="1.67" class="f">grant</text><text x="40.08" y="1.67" class="f">15</text></symbol><symbol id="12"><text y="1.67" class="f">lease</text><text x="6.012" y="1.67" class="f">694d6df16cde4c3f</text><text x="23.046" y="1.67" class="f">granted</text><text x="31.062" y="1.67" class="f">with</text><text x="36.072" y="1.67" class="f">TTL(15s)</text></symbol><symbol id="13"><text y="1.67" class="f">[eric@localhost</text><text x="16.032" y="1.67" class="f">~]$</text><text x="20.04" y="1.67" class="f">etcdctl</text><text x="28.056" y="1.67" class="f">put</text></symbol><symbol id="14"><text y="1.67" class="f">[eric@localhost</text><text x="16.032" y="1.67" class="f">~]$</text><text x="20.04" y="1.67" class="f">etcdctl</text><text x="28.056" y="1.67" class="f">put</text><text x="32.064" y="1.67" class="f">foo</text></symbol><symbol id="15"><text y="1.67" class="f">[eric@localhost</text><text x="16.032" y="1.67" class="f">~]$</text><text x="20.04" y="1.67" class="f">etcdctl</text><text x="28.056" y="1.67" class="f">put</text><text x="32.064" y="1.67" class="f">foo</text><text x="36.072" y="1.67" class="f">bar</text></symbol><symbol id="2"><text y="1.67" class="f">[eric@localhost</text><text x="16.032" y="1.67" class="f">~]$</text><text x="20.04" y="1.67" class="f">e</text></symbol><symbol id="17"><text y="1.67" class="f">[eric@localhost</text><text x="16.032" y="1.67" class="f">~]$</text><text x="20.04" y="1.67" class="f">etcdctl</text><text x="28.056" y="1.67" class="f">put</text><text x="32.064" y="1.67" class="f">foo</text><text x="36.072" y="1.67" class="f">bar</text><text x="40.08" y="1.67" class="f">--lease</text><text x="48.096" y="1.67" class="f">694d6df16cde4c3f</text></symbol><symbol id="18"><text y="1.67" class="f">OK</text></symbol><symbol id="19"><text y="1.67" class="f">[eric@localhost</text><text x="16.032" y="1.67" class="f">~]$</text><text x="20.04" y="1.67" class="f">etcdctl</text><text x="28.056" y="1.67" class="f">g</text></symbol><symbol id="20"><text y="1.67" class="f">[eric@localhost</text><text x="16.032" y="1.67" class="f">~]$</text><text x="20.04" y="1.67" class="f">etcdctl</text><text x="28.056" y="1.67" class="f">ge</text></symbol><symbol id="21"><text y="1.67" class="f">[eric@localhost</text><text x="16.032" y="1.67" class="f">~]$</text><text x="20.04" y="1.67" class="f">etcdctl</text><text x="28.056" y="1.67" class="f">get</text></symbol><symbol id="22"><text y="1.67" class="f">[eric@localhost</text><text x="16.032" y="1.67" class="f">~]$</text><text x="20.04" y="1.67" class="f">etcdctl</text><text x="28.056" y="1.67" class="f">get</text><text x="32.064" y="1.67" class="f">f</text></symbol><symbol id="23"><text y="1.67" class="f">[eric@localhost</text><text x="16.032" y="1.67" class="f">~]$</text><text x="20.04" y="1.67" class="f">etcdctl</text><text x="28.056" y="1.67" class="f">get</text><text x="32.064" y="1.67" class="f">fo</text></symbol><symbol id="24"><text y="1.67" class="f">[eric@localhost</text><text x="16.032" y="1.67" class="f">~]$</text><text x="20.04" y="1.67" class="f">etcdctl</text><text x="28.056" y="1.67" class="f">get</text><text x="32.064" y="1.67" class="f">foo</text></symbol><symbol id="25"><text y="1.67" class="f">foo</text></symbol><symbol id="26"><text y="1.67" class="f">bar</text></symbol><symbol id="27"><text y="1.67" class="f">[eric@localhost</text><text x="16.032" y="1.67" class="f">~]$</text><text x="20.04" y="1.67" class="f">sleep</text></symbol><symbol id="28"><text y="1.67" class="f">[eric@localhost</text><text x="16.032" y="1.67" class="f">~]$</text><text x="20.04" y="1.67" class="f">sleep</text><text x="26.052" y="1.67" class="f">10</text></symbol><symbol id="a"><path fill="transparent" d="M0 0h80v24H0z"/></symbol><symbol id="b"><path fill="#6f7683" d="M0 0h1.102v2.171H0z"/></symbol></defs><path class="a" d="M0 0h80v52.104H0z"/><g style="animation-duration:35.394956s;animation-iteration-count:infinite;animation-name:i;animation-timing-function:steps(1,end)"><svg width="8800"><svg><use xlink:href="#a"/><use xlink:href="#b" x="-.004"/></svg><svg x="80"><use xlink:href="#a"/><use xlink:href="#b" x="-.004"/></svg><svg x="160"><use xlink:href="#a"/><use xlink:href="#b" x="19.996"/><use xlink:href="#1"/></svg><svg x="240"><use xlink:href="#a"/><use xlink:href="#b" x="20.996"/><use xlink:href="#2"/></svg><svg x="320"><use xlink:href="#a"/><use xlink:href="#b" x="21.996"/><use xlink:href="#3"/></svg><svg x="400"><use xlink:href="#a"/><use xlink:href="#b" x="22.996"/><use xlink:href="#4"/></svg><svg x="480"><use xlink:href="#a"/><use xlink:href="#b" x="23.996"/><use xlink:href="#5"/></svg><svg x="560"><use xlink:href="#a"/><use xlink:href="#b" x="24.996"/><use xlink:href="#6"/></svg><svg x="640"><use xlink:href="#a"/><use xlink:href="#b" x="25.996"/><use xlink:href="#7"/></svg><svg x="720"><use xlink:href="#a"/><use xlink:href="#b" x="26.996"/><use xlink:href="#8"/></svg><svg x="800"><use xlink:href="#a"/><use xlink:href="#b" x="27.996"/><use xlink:href="#8"/></svg><svg x="880"><use xlink:href="#a"/><use xlink:href="#b" x="28.996"/><text y="1.67" class="f">[eric@localhost</text><text x="16.032" y="1.67" class="f">~]$</text><text x="20.04" y="1.67" class="f">etcdctl</text><text x="28.056" y="1.67" class="f">l</text></svg><svg x="960"><use xlink:href="#a"/><use xlink:href="#b" x="29.996"/><text y="1.67" class="f">[eric@localhost</text><text x="16.032" y="1.67" class="f">~]$</text><text x="20.04" y="1.67" class="f">etcdctl</text><text x="28.056" y="1.67" class="f">le</text></svg><svg x="1040"><use xlink:href="#a"/><use xlink:href="#b" x="30.996"/><text y="1.67" class="f">[eric@localhost</text><text x="16.032" y="1.67" class="f">~]$</text><text x="20.04" y="1.67" class="f">etcdctl</text><text x="28.056" y="1.67" class="f">lea</text></svg><svg x="1120"><use xlink:href="#a"/><use xlink:href="#b" x="31.996"/><text y="1.67" class="f">[eric@localhost</text><text x="16.032" y="1.67" class="f">~]$</text><text x="20.04" y="1.67" class="f">etcdctl</text><text x="28.056" y="1.67" class="f">leas</text></svg><svg x="1200"><use xlink:href="#a"/><use xlink:href="#b" x="32.996"/><use xlink:href="#9"/></svg><svg x="1280"><use xlink:href="#a"/><use xlink:href="#b" x="33.996"/><use xlink:href="#9"/></svg><svg x="1360"><use xlink:href="#a"/><use xlink:href="#b" x="34.996"/><text y="1.67" class="f">[eric@localhost</text><text x="16.032" y="1.67" class="f">~]$</text><text x="20.04" y="1.67" class="f">etcdctl</text><text x="28.056" y="1.67" class="f">lease</text><text x="34.068" y="1.67" class="f">g</text></svg><svg x="1440"><use xlink:href="#a"/><use xlink:href="#b" x="35.996"/><text y="1.67" class="f">[eric@localhost</text><text x="16.032" y="1.67" class="f">~]$</text><text x="20.04" y="1.67" class="f">etcdctl</text><text x="28.056" y="1.67" class="f">lease</text><text x="34.068" y="1.67" class="f">gr</text></svg><svg x="1520"><use xlink:href="#a"/><use xlink:href="#b" x="36.996"/><text y="1.67" class="f">[eric@localhost</text><text x="16.032" y="1.67" class="f">~]$</text><text x="20.04" y="1.67" class="f">etcdctl</text><text x="28.056" y="1.67" class="f">lease</text><text x="34.068" y="1.67" class="f">gra</text></svg><svg x="1600"><use xlink:href="#a"/><use xlink:href="#b" x="37.996"/><text y="1.67" class="f">[eric@localhost</text><text x="16.032" y="1.67" class="f">~]$</text><text x="20.04" y="1.67" class="f">etcdctl</text><text x="28.056" y="1.67" class="f">lease</text><text x="34.068" y="1.67" class="f">gran</text></svg><svg x="1680"><use xlink:href="#a"/><use xlink:href="#b" x="38.996"/><use xlink:href="#10"/></svg><svg x="1760"><use xlink:href="#a"/><use xlink:href="#b" x="39.996"/><use xlink:href="#10"/></svg><svg x="1840"><use xlink:href="#a"/><use xlink:href="#b" x="40.996"/><text y="1.67" class="f">[eric@localhost</text><text x="16.032" y="1.67" class="f">~]$</text><text x="20.04" y="1.67" class="f">etcdctl</text><text x="28.056" y="1.67" class="f">lease</text><text x="34.068" y="1.67" class="f">grant</text><text x="40.08" y="1.67" class="f">1</text></svg><svg x="1920"><use xlink:href="#a"/><use xlink:href="#b" x="41.996"/><use xlink:href="#11"/></svg><svg x="2000"><use xlink:href="#a"/><use xlink:href="#b" x="-.004" y="2.146"/><use xlink:href="#11"/></svg><svg x="2080"><use xlink:href="#a"/><use xlink:href="#b" x="-.004" y="4.317"/><use xlink:href="#11"/><use xlink:href="#12" y="2.171"/></svg><svg x="2160"><use xlink:href="#a"/><use xlink:href="#b" x="19.996" y="4.317"/><use xlink:href="#11"/><use xlink:href="#12" y="2.171"/><use xlink:href="#1" y="4.342"/></svg><svg x="2240"><use xlink:href="#a"/><use xlink:href="#b" x="20.996" y="4.317"/><use xlink:href="#11"/><use xlink:href="#12" y="2.171"/><use xlink:href="#2" y="4.342"/></svg><svg x="2320"><use xlink:href="#a"/><use xlink:href="#b" x="21.996" y="4.317"/><use xlink:href="#11"/><use xlink:href="#12" y="2.171"/><use xlink:href="#3" y="4.342"/></svg><svg x="2400"><use xlink:href="#a"/><use xlink:href="#b" x="22.996" y="4.317"/><use xlink:href="#11"/><use xlink:href="#12" y="2.171"/><use xlink:href="#4" y="4.342"/></svg><svg x="2480"><use xlink:href="#a"/><use xlink:href="#b" x="23.996" y="4.317"/><use xlink:href="#11"/><use xlink:href="#12" y="2.171"/><use xlink:href="#5" y="4.342"/></svg><svg x="2560"><use xlink:href="#a"/><use xlink:href="#b" x="22.996" y="4.317"/><use xlink:href="#11"/><use xlink:href="#12" y="2.171"/><use xlink:href="#4" y="4.342"/></svg><svg x="2640"><use xlink:href="#a"/><use xlink:href="#b" x="23.996" y="4.317"/><use xlink:href="#11"/><use xlink:href="#12" y="2.171"/><use xlink:href="#5" y="4.342"/></svg><svg x="2720"><use xlink:href="#a"/><use xlink:href="#b" x="24.996" y="4.317"/><use xlink:href="#11"/><use xlink:href="#12" y="2.171"/><use xlink:href="#6" y="4.342"/></svg><svg x="2800"><use xlink:href="#a"/><use xlink:href="#b" x="25.996" y="4.317"/><use xlink:href="#11"/><use xlink:href="#12" y="2.171"/><use xlink:href="#7" y="4.342"/></svg><svg x="2880"><use xlink:href="#a"/><use xlink:href="#b" x="26.996" y="4.317"/><use xlink:href="#11"/><use xlink:href="#12" y="2.171"/><use xlink:href="#8" y="4.342"/></svg><svg x="2960"><use xlink:href="#a"/><use xlink:href="#b" x="27.996" y="4.317"/><use xlink:href="#11"/><use xlink:href="#12" y="2.171"/><use xlink:href="#8" y="4.342"/></svg><svg x="3040"><use xlink:href="#a"/><use xlink:href="#b" x="28.996" y="4.317"/><use xlink:href="#11"/><use xlink:href="#12" y="2.171"/><text y="6.012" class="f">[eric@localhost</text><text x="16.032" y="6.012" class="f">~]$</text><text x="20.04" y="6.012" class="f">etcdctl</text><text x="28.056" y="6.012" class="f">p</text></svg><svg x="3120"><use xlink:href="#a"/><use xlink:href="#b" x="29.996" y="4.317"/><use xlink:href="#11"/><use xlink:href="#12" y="2.171"/><text y="6.012" class="f">[eric@localhost</text><text x="16.032" y="6.012" class="f">~]$</text><text x="20.04" y="6.012" class="f">etcdctl</text><text x="28.056" y="6.012" class="f">pu</text></svg><svg x="3200"><use xlink:href="#a"/><use xlink:href="#b" x="30.996" y="4.317"/><use xlink:href="#11"/><use xlink:href="#12" y="2.171"/><use xlink:href="#13" y="4.342"/></svg><svg x="3280"><use xlink:href="#a"/><use xlink:href="#b" x="31.996" y="4.317"/><use xlink:href="#11"/><use xlink:href="#12" y="2.171"/><use xlink:href="#13" y="4.342"/></svg><svg x="3360"><use xlink:href="#a"/><use xlink:href="#b" x="32.996" y="4.317"/><use xlink:href="#11"/><use xlink:href="#12" y="2.171"/><text y="6.012" class="f">[eric@localhost</text><text x="16.032" y="6.012" class="f">~]$</text><text x="20.04" y="6.012" class="f">etcdctl</text><text x="28.056" y="6.012" class="f">put</text><text x="32.064" y="6.012" class="f">f</text></svg><svg x="3440"><use xlink:href="#a"/><use xlink:href="#b" x="33.996" y="4.317"/><use xlink:href="#11"/><use xlink:href="#12" y="2.171"/><text y="6.012" class="f">[eric@localhost</text><text x="16.032" y="6.012" class="f">~]$</text><text x="20.04" y="6.012" class="f">etcdctl</text><text x="28.056" y="6.012" class="f">put</text><text x="32.064" y="6.012" class="f">fo</text></svg><svg x="3520"><use xlink:href="#a"/><use xlink:href="#b" x="34.996" y="4.317"/><use xlink:href="#11"/><use xlink:href="#12" y="2.171"/><use xlink:href="#14" y="4.342"/></svg><svg x="3600"><use xlink:href="#a"/><use xlink:href="#b" x="35.996" y="4.317"/><use xlink:href="#11"/><use xlink:href="#12" y="2.171"/><use xlink:href="#14" y="4.342"/></svg><svg x="3680"><use xlink:href="#a"/><use xlink:href="#b" x="36.996" y="4.317"/><use xlink:href="#11"/><use xlink:href="#12" y="2.171"/><text y="6.012" class="f">[eric@localhost</text><text x="16.032" y="6.012" class="f">~]$</text><text x="20.04" y="6.012" class="f">etcdctl</text><text x="28.056" y="6.012" class="f">put</text><text x="32.064" y="6.012" class="f">foo</text><text x="36.072" y="6.012" class="f">b</text></svg><svg x="3760"><use xlink:href="#a"/><use xlink:href="#b" x="37.996" y="4.317"/><use xlink:href="#11"/><use xlink:href="#12" y="2.171"/><text y="6.012" class="f">[eric@localhost</text><text x="16.032" y="6.012" class="f">~]$</text><text x="20.04" y="6.012" class="f">etcdctl</text><text x="28.056" y="6.012" class="f">put</text><text x="32.064" y="6.012" class="f">foo</text><text x="36.072" y="6.012" class="f">ba</text></svg><svg x="3840"><use xlink:href="#a"/><use xlink:href="#b" x="38.996" y="4.317"/><use xlink:href="#11"/><use xlink:href="#12" y="2.171"/><use xlink:href="#15" y="4.342"/></svg><svg x="3920"><use xlink:href="#a"/><use xlink:href="#b" x="39.996" y="4.317"/><use xlink:href="#11"/><use xlink:href="#12" y="2.171"/><use xlink:href="#15" y="4.342"/></svg><svg x="4000"><use xlink:href="#a"/><use xlink:href="#b" x="40.996" y="4.317"/><use xlink:href="#11"/><use xlink:href="#12" y="2.171"/><text y="6.012" class="f">[eric@localhost</text><text x="16.032" y="6.012" class="f">~]$</text><text x="20.04" y="6.012" class="f">etcdctl</text><text x="28.056" y="6.012" class="f">put</text><text x="32.064" y="6.012" class="f">foo</text><text x="36.072" y="6.012" class="f">bar</text><text x="40.08" y="6.012" class="f">-</text></svg><svg x="4080"><use xlink:href="#a"/><use xlink:href="#b" x="41.996" y="4.317"/><use xlink:href="#11"/><use xlink:href="#12" y="2.171"/><text y="6.012" class="f">[eric@localhost</text><text x="16.032" y="6.012" class="f">~]$</text><text x="20.04" y="6.012" class="f">etcdctl</text><text x="28.056" y="6.012" class="f">put</text><text x="32.064" y="6.012" class="f">foo</text><text x="36.072" y="6.012" class="f">bar</text><text x="40.08" y="6.012" class="f">--</text></svg><svg x="4160"><use xlink:href="#a"/><use xlink:href="#b" x="42.996" y="4.317"/><use xlink:href="#11"/><use xlink:href="#12" y="2.171"/><text y="6.012" class="f">[eric@localhost</text><text x="16.032" y="6.012" class="f">~]$</text><text x="20.04" y="6.012" class="f">etcdctl</text><text x="28.056" y="6.012" class="f">put</text><text x="32.064" y="6.012" class="f">foo</text><text x="36.072" y="6.012" class="f">bar</text><text x="40.08" y="6.012" class="f">--l</text></svg><svg x="4240"><use xlink:href="#a"/><use xlink:href="#b" x="43.996" y="4.317"/><use xlink:href="#11"/><use xlink:href="#12" y="2.171"/><text y="6.012" class="f">[eric@localhost</text><text x="16.032" y="6.012" class="f">~]$</text><text x="20.04" y="6.012" class="f">etcdctl</text><text x="28.056" y="6.012" class="f">put</text><text x="32.064" y="6.012" class="f">foo</text><text x="36.072" y="6.012" class="f">bar</text><text x="40.08" y="6.012" class="f">--le</text></svg><svg x="4320"><use xlink:href="#a"/><use xlink:href="#b" x="44.996" y="4.317"/><use xlink:href="#11"/><use xlink:href="#12" y="2.171"/><text y="6.012" class="f">[eric@localhost</text><text x="16.032" y="6.012" class="f">~]$</text><text x="20.04" y="6.012" class="f">etcdctl</text><text x="28.056" y="6.012" class="f">put</text><text x="32.064" y="6.012" class="f">foo</text><text x="36.072" y="6.012" class="f">bar</text><text x="40.08" y="6.012" class="f">--lea</text></svg><svg x="4400"><use xlink:href="#a"/><use xlink:href="#b" x="45.996" y="4.317"/><use xlink:href="#11"/><use xlink:href="#12" y="2.171"/><text y="6.012" class="f">[eric@localhost</text><text x="16.032" y="6.012" class="f">~]$</text><text x="20.04" y="6.012" class="f">etcdctl</text><text x="28.056" y="6.012" class="f">put</text><text x="32.064" y="6.012" class="f">foo</text><text x="36.072" y="6.012" class="f">bar</text><text x="40.08" y="6.012" class="f">--leas</text></svg><svg x="4480"><use xlink:href="#a"/><use xlink:href="#b" x="46.996" y="4.317"/><use xlink:href="#11"/><use xlink:href="#12" y="2.171"/><use xlink:href="#16" y="4.342"/></svg><svg x="4560"><use xlink:href="#a"/><use xlink:href="#b" x="47.996" y="4.317"/><use xlink:href="#11"/><use xlink:href="#12" y="2.171"/><use xlink:href="#16" y="4.342"/></svg><svg x="4640"><use xlink:href="#a"/><use xlink:href="#b" x="63.996" y="4.317"/><use xlink:href="#11"/><use xlink:href="#12" y="2.171"/><use xlink:href="#17" y="4.342"/></svg><svg x="4720"><use xlink:href="#a"/><use xlink:href="#b" x="-.004" y="6.488"/><use xlink:href="#11"/><use xlink:href="#12" y="2.171"/><use xlink:href="#17" y="4.342"/></svg><svg x="4800"><use xlink:href="#a"/><use xlink:href="#b" x="-.004" y="8.659"/><use xlink:href="#11"/><use xlink:href="#12" y="2.171"/><use xlink:href="#17" y="4.342"/><use xlink:href="#18" y="6.513"/></svg><svg x="4880"><use xlink:href="#a"/><use xlink:href="#b" x="19.996" y="8.659"/><use xlink:href="#11"/><use xlink:href="#12" y="2.171"/><use xlink:href="#17" y="4.342"/><use xlink:href="#18" y="6.513"/><use xlink:href="#1" y="8.684"/></svg><svg x="4960"><use xlink:href="#a"/><use xlink:href="#b" x="20.996" y="8.659"/><use xlink:href="#11"/><use xlink:href="#12" y="2.171"/><use xlink:href="#17" y="4.342"/><use xlink:href="#18" y="6.513"/><use xlink:href="#2" y="8.684"/></svg><svg x="5040"><use xlink:href="#a"/><use xlink:href="#b" x="21.996" y="8.659"/><use xlink:href="#11"/><use xlink:href="#12" y="2.171"/><use xlink:href="#17" y="4.342"/><use xlink:href="#18" y="6.513"/><use xlink:href="#3" y="8.684"/></svg><svg x="5120"><use xlink:href="#a"/><use xlink:href="#b" x="22.996" y="8.659"/><use xlink:href="#11"/><use xlink:href="#12" y="2.171"/><use xlink:href="#17" y="4.342"/><use xlink:href="#18" y="6.513"/><use xlink:href="#4" y="8.684"/></svg><svg x="5200"><use xlink:href="#a"/><use xlink:href="#b" x="23.996" y="8.659"/><use xlink:href="#11"/><use xlink:href="#12" y="2.171"/><use xlink:href="#17" y="4.342"/><use xlink:href="#18" y="6.513"/><use xlink:href="#5" y="8.684"/></svg><svg x="5280"><use xlink:href="#a"/><use xlink:href="#b" x="24.996" y="8.659"/><use xlink:href="#11"/><use xlink:href="#12" y="2.171"/><use xlink:href="#17" y="4.342"/><use xlink:href="#18" y="6.513"/><use xlink:href="#6" y="8.684"/></svg><svg x="5360"><use xlink:href="#a"/><use xlink:href="#b" x="25.996" y="8.659"/><use xlink:href="#11"/><use xlink:href="#12" y="2.171"/><use xlink:href="#17" y="4.342"/><use xlink:href="#18" y="6.513"/><use xlink:href="#7" y="8.684"/></svg><svg x="5440"><use xlink:href="#a"/><use xlink:href="#b" x="26.996" y="8.659"/><use xlink:href="#11"/><use xlink:href="#12" y="2.171"/><use xlink:href="#17" y="4.342"/><use xlink:href="#18" y="6.513"/><use xlink:href="#8" y="8.684"/></svg><svg x="5520"><use xlink:href="#a"/><use xlink:href="#b" x="27.996" y="8.659"/><use xlink:href="#11"/><use xlink:href="#12" y="2.171"/><use xlink:href="#17" y="4.342"/><use xlink:href="#18" y="6.513"/><use xlink:href="#8" y="8.684"/></svg><svg x="5600"><use xlink:href="#a"/><use xlink:href="#b" x="28.996" y="8.659"/><use xlink:href="#11"/><use xlink:href="#12" y="2.171"/><use xlink:href="#17" y="4.342"/><use xlink:href="#18" y="6.513"/><use xlink:href="#19" y="8.684"/></svg><svg x="5680"><use xlink:href="#a"/><use xlink:href="#b" x="29.996" y="8.659"/><use xlink:href="#11"/><use xlink:href="#12" y="2.171"/><use xlink:href="#17" y="4.342"/><use xlink:href="#18" y="6.513"/><use xlink:href="#20" y="8.684"/></svg><svg x="5760"><use xlink:href="#a"/><use xlink:href="#b" x="30.996" y="8.659"/><use xlink:href="#11"/><use xlink:href="#12" y="2.171"/><use xlink:href="#17" y="4.342"/><use xlink:href="#18" y="6.513"/><use xlink:href="#21" y="8.684"/></svg><svg x="5840"><use xlink:href="#a"/><use xlink:href="#b" x="31.996" y="8.659"/><use xlink:href="#11"/><use xlink:href="#12" y="2.171"/><use xlink:href="#17" y="4.342"/><use xlink:href="#18" y="6.513"/><use xlink:href="#21" y="8.684"/></svg><svg x="5920"><use xlink:href="#a"/><use xlink:href="#b" x="32.996" y="8.659"/><use xlink:href="#11"/><use xlink:href="#12" y="2.171"/><use xlink:href="#17" y="4.342"/><use xlink:href="#18" y="6.513"/><use xlink:href="#22" y="8.684"/></svg><svg x="6000"><use xlink:href="#a"/><use xlink:href="#b" x="33.996" y="8.659"/><use xlink:href="#11"/><use xlink:href="#12" y="2.171"/><use xlink:href="#17" y="4.342"/><use xlink:href="#18" y="6.513"/><use xlink:href="#23" y="8.684"/></svg><svg x="6080"><use xlink:href="#a"/><use xlink:href="#b" x="34.996" y="8.659"/><use xlink:href="#11"/><use xlink:href="#12" y="2.171"/><use xlink:href="#17" y="4.342"/><use xlink:href="#18" y="6.513"/><use xlink:href="#24" y="8.684"/></svg><svg x="6160"><use xlink:href="#a"/><use xlink:href="#b" x="-.004" y="10.83"/><use xlink:href="#11"/><use xlink:href="#12" y="2.171"/><use xlink:href="#17" y="4.342"/><use xlink:href="#18" y="6.513"/><use xlink:href="#24" y="8.684"/></svg><svg x="6240"><use xlink:href="#a"/><use xlink:href="#b" x="-.004" y="15.172"/><use xlink:href="#11"/><use xlink:href="#12" y="2.171"/><use xlink:href="#17" y="4.342"/><use xlink:href="#18" y="6.513"/><use xlink:href="#24" y="8.684"/><use xlink:href="#25" y="10.855"/><use xlink:href="#26" y="13.026"/></svg><svg x="6320"><use xlink:href="#a"/><use xlink:href="#b" x="-.004" y="15.172"/><use xlink:href="#11"/><use xlink:href="#12" y="2.171"/><use xlink:href="#17" y="4.342"/><use xlink:href="#18" y="6.513"/><use xlink:href="#24" y="8.684"/><use xlink:href="#25" y="10.855"/><use xlink:href="#26" y="13.026"/></svg><svg x="6400"><use xlink:href="#a"/><use xlink:href="#b" x="19.996" y="15.172"/><use xlink:href="#11"/><use xlink:href="#12" y="2.171"/><use xlink:href="#17" y="4.342"/><use xlink:href="#18" y="6.513"/><use xlink:href="#24" y="8.684"/><use xlink:href="#25" y="10.855"/><use xlink:href="#26" y="13.026"/><use xlink:href="#1" y="15.197"/></svg><svg x="6480"><use xlink:href="#a"/><use xlink:href="#b" x="20.996" y="15.172"/><use xlink:href="#11"/><use xlink:href="#12" y="2.171"/><use xlink:href="#17" y="4.342"/><use xlink:href="#18" y="6.513"/><use xlink:href="#24" y="8.684"/><use xlink:href="#25" y="10.855"/><use xlink:href="#26" y="13.026"/><text y="16.867" class="f">[eric@localhost</text><text x="16.032" y="16.867" class="f">~]$</text><text x="20.04" y="16.867" class="f">s</text></svg><svg x="6560"><use xlink:href="#a"/><use xlink:href="#b" x="21.996" y="15.172"/><use xlink:href="#11"/><use xlink:href="#12" y="2.171"/><use xlink:href="#17" y="4.342"/><use xlink:href="#18" y="6.513"/><use xlink:href="#24" y="8.684"/><use xlink:href="#25" y="10.855"/><use xlink:href="#26" y="13.026"/><text y="16.867" class="f">[eric@localhost</text><text x="16.032" y="16.867" class="f">~]$</text><text x="20.04" y="16.867" class="f">sl</text></svg><svg x="6640"><use xlink:href="#a"/><use xlink:href="#b" x="22.996" y="15.172"/><use xlink:href="#11"/><use xlink:href="#12" y="2.171"/><use xlink:href="#17" y="4.342"/><use xlink:href="#18" y="6.513"/><use xlink:href="#24" y="8.684"/><use xlink:href="#25" y="10.855"/><use xlink:href="#26" y="13.026"/><text y="16.867" class="f">[eric@localhost</text><text x="16.032" y="16.867" class="f">~]$</text><text x="20.04" y="16.867" class="f">sle</text></svg><svg x="6720"><use xlink:href="#a"/><use xlink:href="#b" x="23.996" y="15.172"/><use xlink:href="#11"/><use xlink:href="#12" y="2.171"/><use xlink:href="#17" y="4.342"/><use xlink:href="#18" y="6.513"/><use xlink:href="#24" y="8.684"/><use xlink:href="#25" y="10.855"/><use xlink:href="#26" y="13.026"/><text y="16.867" class="f">[eric@localhost</text><text x="16.032" y="16.867" class="f">~]$</text><text x="20.04" y="16.867" class="f">slee</text></svg><svg x="6800"><use xlink:href="#a"/><use xlink:href="#b" x="24.996" y="15.172"/><use xlink:href="#11"/><use xlink:href="#12" y="2.171"/><use xlink:href="#17" y="4.342"/><use xlink:href="#18" y="6.513"/><use xlink:href="#24" y="8.684"/><use xlink:href="#25" y="10.855"/><use xlink:href="#26" y="13.026"/><use xlink:href="#27" y="15.197"/></svg><svg x="6880"><use xlink:href="#a"/><use xlink:href="#b" x="25.996" y="15.172"/><use xlink:href="#11"/><use xlink:href="#12" y="2.171"/><use xlink:href="#17" y="4.342"/><use xlink:href="#18" y="6.513"/><use xlink:href="#24" y="8.684"/><use xlink:href="#25" y="10.855"/><use xlink:href="#26" y="13.026"/><use xlink:href="#27" y="15.197"/></svg><svg x="6960"><use xlink:href="#a"/><use xlink:href="#b" x="26.996" y="15.172"/><use xlink:href="#11"/><use xlink:href="#12" y="2.171"/><use xlink:href="#17" y="4.342"/><use xlink:href="#18" y="6.513"/><use xlink:href="#24" y="8.684"/><use xlink:href="#25" y="10.855"/><use xlink:href="#26" y="13.026"/><text y="16.867" class="f">[eric@localhost</text><text x="16.032" y="16.867" class="f">~]$</text><text x="20.04" y="16.867" class="f">sleep</text><text x="26.052" y="16.867" class="f">1</text></svg><svg x="7040"><use xlink:href="#a"/><use xlink:href="#b" x="27.996" y="15.172"/><use xlink:href="#11"/><use xlink:href="#12" y="2.171"/><use xlink:href="#17" y="4.342"/><use xlink:href="#18" y="6.513"/><use xlink:href="#24" y="8.684"/><use xlink:href="#25" y="10.855"/><use xlink:href="#26" y="13.026"/><use xlink:href="#28" y="15.197"/></svg><svg x="7120"><use xlink:href="#a"/><use xlink:href="#b" x="-.004" y="17.343"/><use xlink:href="#11"/><use xlink:href="#12" y="2.171"/><use xlink:href="#17" y="4.342"/><use xlink:href="#18" y="6.513"/><use xlink:href="#24" y="8.684"/><use xlink:href="#25" y="10.855"/><use xlink:href="#26" y="13.026"/><use xlink:href="#28" y="15.197"/></svg><svg x="7200"><use xlink:href="#a"/><use xlink:href="#b" x="-.004" y="17.343"/><use xlink:href="#11"/><use xlink:href="#12" y="2.171"/><use xlink:href="#17" y="4.342"/><use xlink:href="#18" y="6.513"/><use xlink:href="#24" y="8.684"/><use xlink:href="#25" y="10.855"/><use xlink:href="#26" y="13.026"/><use xlink:href="#28" y="15.197"/></svg><svg x="7280"><use xlink:href="#a"/><use xlink:href="#b" x="19.996" y="17.343"/><use xlink:href="#11"/><use xlink:href="#12" y="2.171"/><use xlink:href="#17" y="4.342"/><use xlink:href="#18" y="6.513"/><use xlink:href="#24" y="8.684"/><use xlink:href="#25" y="10.855"/><use xlink:href="#26" y="13.026"/><use xlink:href="#28" y="15.197"/><use xlink:href="#1" y="17.368"/></svg><svg x="7360"><use xlink:href="#a"/><use xlink:href="#b" x="20.996" y="17.343"/><use xlink:href="#11"/><use xlink:href="#12" y="2.171"/><use xlink:href="#17" y="4.342"/><use xlink:href="#18" y="6.513"/><use xlink:href="#24" y="8.684"/><use xlink:href="#25" y="10.855"/><use xlink:href="#26" y="13.026"/><use xlink:href="#28" y="15.197"/><use xlink:href="#2" y="17.368"/></svg><svg x="7440"><use xlink:href="#a"/><use xlink:href="#b" x="21.996" y="17.343"/><use xlink:href="#11"/><use xlink:href="#12" y="2.171"/><use xlink:href="#17" y="4.342"/><use xlink:href="#18" y="6.513"/><use xlink:href="#24" y="8.684"/><use xlink:href="#25" y="10.855"/><use xlink:href="#26" y="13.026"/><use xlink:href="#28" y="15.197"/><use xlink:href="#3" y="17.368"/></svg><svg x="7520"><use xlink:href="#a"/><use xlink:href="#b" x="22.996" y="17.343"/><use xlink:href="#11"/><use xlink:href="#12" y="2.171"/><use xlink:href="#17" y="4.342"/><use xlink:href="#18" y="6.513"/><use xlink:href="#24" y="8.684"/><use xlink:href="#25" y="10.855"/><use xlink:href="#26" y="13.026"/><use xlink:href="#28" y="15.197"/><use xlink:href="#4" y="17.368"/></svg><svg x="7600"><use xlink:href="#a"/><use xlink:href="#b" x="23.996" y="17.343"/><use xlink:href="#11"/><use xlink:href="#12" y="2.171"/><use xlink:href="#17" y="4.342"/><use xlink:href="#18" y="6.513"/><use xlink:href="#24" y="8.684"/><use xlink:href="#25" y="10.855"/><use xlink:href="#26" y="13.026"/><use xlink:href="#28" y="15.197"/><use xlink:href="#5" y="17.368"/></svg><svg x="7680"><use xlink:href="#a"/><use xlink:href="#b" x="24.996" y="17.343"/><use xlink:href="#11"/><use xlink:href="#12" y="2.171"/><use xlink:href="#17" y="4.342"/><use xlink:href="#18" y="6.513"/><use xlink:href="#24" y="8.684"/><use xlink:href="#25" y="10.855"/><use xlink:href="#26" y="13.026"/><use xlink:href="#28" y="15.197"/><use xlink:href="#6" y="17.368"/></svg><svg x="7760"><use xlink:href="#a"/><use xlink:href="#b" x="25.996" y="17.343"/><use xlink:href="#11"/><use xlink:href="#12" y="2.171"/><use xlink:href="#17" y="4.342"/><use xlink:href="#18" y="6.513"/><use xlink:href="#24" y="8.684"/><use xlink:href="#25" y="10.855"/><use xlink:href="#26" y="13.026"/><use xlink:href="#28" y="15.197"/><use xlink:href="#7" y="17.368"/></svg><svg x="7840"><use xlink:href="#a"/><use xlink:href="#b" x="26.996" y="17.343"/><use xlink:href="#11"/><use xlink:href="#12" y="2.171"/><use xlink:href="#17" y="4.342"/><use xlink:href="#18" y="6.513"/><use xlink:href="#24" y="8.684"/><use xlink:href="#25" y="10.855"/><use xlink:href="#26" y="13.026"/><use xlink:href="#28" y="15.197"/><use xlink:href="#8" y="17.368"/></svg><svg x="7920"><use xlink:href="#a"/><use xlink:href="#b" x="27.996" y="17.343"/><use xlink:href="#11"/><use xlink:href="#12" y="2.171"/><use xlink:href="#17" y="4.342"/><use xlink:href="#18" y="6.513"/><use xlink:href="#24" y="8.684"/><use xlink:href="#25" y="10.855"/><use xlink:href="#26" y="13.026"/><use xlink:href="#28" y="15.197"/><use xlink:href="#8" y="17.368"/></svg><svg x="8000"><use xlink:href="#a"/><use xlink:href="#b" x="28.996" y="17.343"/><use xlink:href="#11"/><use xlink:href="#12" y="2.171"/><use xlink:href="#17" y="4.342"/><use xlink:href="#18" y="6.513"/><use xlink:href="#24" y="8.684"/><use xlink:href="#25" y="10.855"/><use xlink:href="#26" y="13.026"/><use xlink:href="#28" y="15.197"/><use xlink:href="#19" y="17.368"/></svg><svg x="8080"><use xlink:href="#a"/><use xlink:href="#b" x="29.996" y="17.343"/><use xlink:href="#11"/><use xlink:href="#12" y="2.171"/><use xlink:href="#17" y="4.342"/><use xlink:href="#18" y="6.513"/><use xlink:href="#24" y="8.684"/><use xlink:href="#25" y="10.855"/><use xlink:href="#26" y="13.026"/><use xlink:href="#28" y="15.197"/><use xlink:href="#20" y="17.368"/></svg><svg x="8160"><use xlink:href="#a"/><use xlink:href="#b" x="30.996" y="17.343"/><use xlink:href="#11"/><use xlink:href="#12" y="2.171"/><use xlink:href="#17" y="4.342"/><use xlink:href="#18" y="6.513"/><use xlink:href="#24" y="8.684"/><use xlink:href="#25" y="10.855"/><use xlink:href="#26" y="13.026"/><use xlink:href="#28" y="15.197"/><use xlink:href="#21" y="17.368"/></svg><svg x="8240"><use xlink:href="#a"/><use xlink:href="#b" x="31.996" y="17.343"/><use xlink:href="#11"/><use xlink:href="#12" y="2.171"/><use xlink:href="#17" y="4.342"/><use xlink:href="#18" y="6.513"/><use xlink:href="#24" y="8.684"/><use xlink:href="#25" y="10.855"/><use xlink:href="#26" y="13.026"/><use xlink:href="#28" y="15.197"/><use xlink:href="#21" y="17.368"/></svg><svg x="8320"><use xlink:href="#a"/><use xlink:href="#b" x="32.996" y="17.343"/><use xlink:href="#11"/><use xlink:href="#12" y="2.171"/><use xlink:href="#17" y="4.342"/><use xlink:href="#18" y="6.513"/><use xlink:href="#24" y="8.684"/><use xlink:href="#25" y="10.855"/><use xlink:href="#26" y="13.026"/><use xlink:href="#28" y="15.197"/><use xlink:href="#22" y="17.368"/></svg><svg x="8400"><use xlink:href="#a"/><use xlink:href="#b" x="33.996" y="17.343"/><use xlink:href="#11"/><use xlink:href="#12" y="2.171"/><use xlink:href="#17" y="4.342"/><use xlink:href="#18" y="6.513"/><use xlink:href="#24" y="8.684"/><use xlink:href="#25" y="10.855"/><use xlink:href="#26" y="13.026"/><use xlink:href="#28" y="15.197"/><use xlink:href="#23" y="17.368"/></svg><svg x="8480"><use xlink:href="#a"/><use xlink:href="#b" x="34.996" y="17.343"/><use xlink:href="#11"/><use xlink:href="#12" y="2.171"/><use xlink:href="#17" y="4.342"/><use xlink:href="#18" y="6.513"/><use xlink:href="#24" y="8.684"/><use xlink:href="#25" y="10.855"/><use xlink:href="#26" y="13.026"/><use xlink:href="#28" y="15.197"/><use xlink:href="#24" y="17.368"/></svg><svg x="8560"><use xlink:href="#a"/><use xlink:href="#b" x="-.004" y="19.514"/><use xlink:href="#11"/><use xlink:href="#12" y="2.171"/><use xlink:href="#17" y="4.342"/><use xlink:href="#18" y="6.513"/><use xlink:href="#24" y="8.684"/><use xlink:href="#25" y="10.855"/><use xlink:href="#26" y="13.026"/><use xlink:href="#28" y="15.197"/><use xlink:href="#24" y="17.368"/></svg><svg x="8640"><use xlink:href="#a"/><use xlink:href="#b" x="19.996" y="19.514"/><use xlink:href="#11"/><use xlink:href="#12" y="2.171"/><use xlink:href="#17" y="4.342"/><use xlink:href="#18" y="6.513"/><use xlink:href="#24" y="8.684"/><use xlink:href="#25" y="10.855"/><use xlink:href="#26" y="13.026"/><use xlink:href="#28" y="15.197"/><use xlink:href="#24" y="17.368"/><use xlink:href="#1" y="19.539"/></svg><svg x="8720"><use xlink:href="#a"/><use xlink:href="#b" x="-.004" y="21.685"/><use xlink:href="#11"/><use xlink:href="#12" y="2.171"/><use xlink:href="#17" y="4.342"/><use xlink:href="#18" y="6.513"/><use xlink:href="#24" y="8.684"/><use xlink:href="#25" y="10.855"/><use xlink:href="#26" y="13.026"/><use xlink:href="#28" y="15.197"/><use xlink:href="#24" y="17.368"/><text y="21.209" class="f">[eric@localhost</text><text x="16.032" y="21.209" class="f">~]$</text><text x="20.04" y="21.209" class="f">exit</text></svg></svg></g></g></svg></svg>