<svg xmlns="http://www.w3.org/2000/svg" xmlns:xlink="http://www.w3.org/1999/xlink" width="840" height="581.04"><rect width="840" height="581.04" rx="5" ry="5" class="a"/><svg y="0%" x="0%"><circle cx="20" cy="20" r="6" fill="#ff5f58"/><circle cx="40" cy="20" r="6" fill="#ffbd2e"/><circle cx="60" cy="20" r="6" fill="#18c132"/></svg><svg height="521.04" viewBox="0 0 80 52.104" width="800" x="15" xmlns="http://www.w3.org/2000/svg" xmlns:xlink="http://www.w3.org/1999/xlink" y="50"><style>@keyframes i{0%{transform:translateX(0)}.53%{transform:translateX(-160px)}3.15%{transform:translateX(-240px)}3.44%{transform:translateX(-320px)}4.15%{transform:translateX(-400px)}4.34%{transform:translateX(-480px)}4.96%{transform:translateX(-560px)}5.52%{transform:translateX(-640px)}5.73%{transform:translateX(-720px)}5.91%{transform:translateX(-800px)}6.79%{transform:translateX(-880px)}7.09%{transform:translateX(-960px)}7.38%{transform:translateX(-1040px)}8.58%{transform:translateX(-1120px)}9.25%{transform:translateX(-1200px)}9.51%{transform:translateX(-1280px)}12.03%{transform:translateX(-1360px)}12.37%{transform:translateX(-1440px)}12.78%{transform:translateX(-1520px)}13.21%{transform:translateX(-1600px)}13.47%{transform:translateX(-1680px)}13.7%{transform:translateX(-1760px)}13.81%{transform:translateX(-1840px)}15.14%{transform:translateX(-1920px)}15.24%{transform:translateX(-2000px)}15.28%{transform:translateX(-2160px)}30.61%{transform:translateX(-2240px)}30.9%{transform:translateX(-2320px)}31.64%{transform:translateX(-2400px)}31.85%{transform:translateX(-2480px)}32.81%{transform:translateX(-2560px)}33.34%{transform:translateX(-2640px)}34.1%{transform:translateX(-2720px)}35.04%{transform:translateX(-2800px)}37.82%{transform:translateX(-2880px)}38.29%{transform:translateX(-2960px)}38.65%{transform:translateX(-3040px)}39.03%{transform:translateX(-3120px)}39.44%{transform:translateX(-3200px)}39.68%{transform:translateX(-3280px)}40.03%{transform:translateX(-3360px)}40.17%{transform:translateX(-3440px)}40.39%{transform:translateX(-3520px)}40.87%{transform:translateX(-3600px)}41.06%{transform:translateX(-3680px)}45.71%{transform:translateX(-3760px)}45.8%{transform:translateX(-3840px)}45.84%{transform:translateX(-4000px)}50.55%{transform:translateX(-4080px)}50.76%{transform:translateX(-4160px)}51.41%{transform:translateX(-4240px)}51.62%{transform:translateX(-4320px)}52.8%{transform:translateX(-4400px)}53.79%{transform:translateX(-4480px)}54.04%{transform:translateX(-4560px)}54.6%{transform:translateX(-4640px)}54.85%{transform:translateX(-4720px)}55.06%{transform:translateX(-4800px)}55.85%{transform:translateX(-4880px)}56.22%{transform:translateX(-4960px)}56.45%{transform:translateX(-5040px)}56.74%{transform:translateX(-5120px)}57.07%{transform:translateX(-5200px)}57.3%{transform:translateX(-5280px)}57.66%{transform:translateX(-5360px)}57.87%{transform:translateX(-5440px)}58.05%{transform:translateX(-5520px)}58.37%{transform:translateX(-5600px)}59.16%{transform:translateX(-5680px)}62.06%{transform:translateX(-5760px)}62.16%{transform:translateX(-5840px)}62.19%{transform:translateX(-6000px)}64.41%{transform:translateX(-6080px)}64.72%{transform:translateX(-6160px)}65.35%{transform:translateX(-6240px)}65.53%{transform:translateX(-6320px)}66.05%{transform:translateX(-6400px)}66.6%{transform:translateX(-6480px)}66.81%{transform:translateX(-6560px)}67%{transform:translateX(-6640px)}70.46%{transform:translateX(-6720px)}70.73%{transform:translateX(-6800px)}70.9%{transform:translateX(-6880px)}71.32%{transform:translateX(-6960px)}71.68%{transform:translateX(-7040px)}72.05%{transform:translateX(-7120px)}72.43%{transform:translateX(-7200px)}73.29%{transform:translateX(-7280px)}73.71%{transform:translateX(-7360px)}74%{transform:translateX(-7440px)}74.17%{transform:translateX(-7520px)}74.37%{transform:translateX(-7600px)}74.88%{transform:translateX(-7680px)}75.47%{transform:translateX(-7760px)}79.55%{transform:translateX(-7840px)}80.13%{transform:translateX(-7920px)}81.08%{transform:translateX(-8000px)}81.29%{transform:translateX(-8080px)}82.56%{transform:translateX(-8160px)}82.69%{transform:translateX(-8240px)}82.7%{transform:translateX(-8320px)}85.92%{transform:translateX(-8400px)}87.65%{transform:translateX(-8480px)}88.17%{transform:translateX(-8560px)}89.71%{transform:translateX(-8640px)}89.82%{transform:translateX(-8720px)}89.86%{transform:translateX(-8880px)}92.94%{transform:translateX(-8960px)}94%{transform:translateX(-9040px)}94.48%{transform:translateX(-9120px)}95.8%{transform:translateX(-9200px)}95.9%{transform:translateX(-9280px)}95.93%{transform:translateX(-9440px)}to{transform:translateX(-9520px)}}.a{fill:#282d35}.f{fill:#b9c0cb;white-space:pre}</style><g font-family="Monaco,Consolas,Menlo,'Bitstream Vera Sans Mono','Powerline Symbols',monospace" font-size="1.67"><defs><symbol id="20"><text y="1.67" class="f">[eric@localhost</text><text x="16.032" y="1.67" class="f">~]$</text><text x="20.04" y="1.67" class="f">etcdctl</text><text x="28.056" y="1.67" class="f">put</text><text x="32.064" y="1.67" class="f">f</text></symbol><symbol id="1"><text y="1.67" class="f">[eric@localhost</text><text x="16.032" y="1.67" class="f">~]$</text></symbol><symbol id="3"><text y="1.67" class="f">[eric@localhost</text><text x="16.032" y="1.67" class="f">~]$</text><text x="20.04" y="1.67" class="f">et</text></symbol><symbol id="4"><text y="1.67" class="f">[eric@localhost</text><text x="16.032" y="1.67" class="f">~]$</text><text x="20.04" y="1.67" class="f">etc</text></symbol><symbol id="5"><text y="1.67" class="f">[eric@localhost</text><text x="16.032" y="1.67" class="f">~]$</text><text x="20.04" y="1.67" class="f">etcd</text></symbol><symbol id="6"><text y="1.67" class="f">[eric@localhost</text><text x="16.032" y="1.67" class="f">~]$</text><text x="20.04" y="1.67" class="f">etcdc</text></symbol><symbol id="7"><text y="1.67" class="f">[eric@localhost</text><text x="16.032" y="1.67" class="f">~]$</text><text x="20.04" y="1.67" class="f">etcdct</text></symbol><symbol id="8"><text y="1.67" class="f">[eric@localhost</text><text x="16.032" y="1.67" class="f">~]$</text><text x="20.04" y="1.67" class="f">etcdctl</text></symbol><symbol id="9"><text y="1.67" class="f">[eric@localhost</text><text x="16.032" y="1.67" class="f">~]$</text><text x="20.04" y="1.67" class="f">etcdctl</text><text x="28.056" y="1.67" class="f">g</text></symbol><symbol id="10"><text y="1.67" class="f">[eric@localhost</text><text x="16.032" y="1.67" class="f">~]$</text><text x="20.04" y="1.67" class="f">etcdctl</text><text x="28.056" y="1.67" class="f">ge</text></symbol><symbol id="11"><text y="1.67" class="f">[eric@localhost</text><text x="16.032" y="1.67" class="f">~]$</text><text x="20.04" y="1.67" class="f">etcdctl</text><text x="28.056" y="1.67" class="f">get</text></symbol><symbol id="12"><text y="1.67" class="f">[eric@localhost</text><text x="16.032" y="1.67" class="f">~]$</text><text x="20.04" y="1.67" class="f">etcdctl</text><text x="28.056" y="1.67" class="f">get</text><text x="32.064" y="1.67" class="f">/</text></symbol><symbol id="13"><text y="1.67" class="f">[eric@localhost</text><text x="16.032" y="1.67" class="f">~]$</text><text x="20.04" y="1.67" class="f">etcdctl</text><text x="28.056" y="1.67" class="f">get</text><text x="32.064" y="1.67" class="f">/</text><text x="34.068" y="1.67" class="f">-w</text></symbol><symbol id="14"><text y="1.67" class="f">[eric@localhost</text><text x="16.032" y="1.67" class="f">~]$</text><text x="20.04" y="1.67" class="f">etcdctl</text><text x="28.056" y="1.67" class="f">get</text><text x="32.064" y="1.67" class="f">/</text><text x="34.068" y="1.67" class="f">-w</text><text x="37.074" y="1.67" class="f">json</text></symbol><symbol id="15"><text y="1.67" class="f">{&quot;header&quot;:{&quot;cluster_id&quot;:4255616304056076734,&quot;member_id&quot;:9882886658148554927,&quot;rev</text></symbol><symbol id="16"><text y="1.67" class="f">ision&quot;:7612,&quot;raft_term&quot;:14}}</text></symbol><symbol id="17"><text y="1.67" class="f">[eric@localhost</text><text x="16.032" y="1.67" class="f">~]$</text><text x="20.04" y="1.67" class="f">etcdctl</text><text x="28.056" y="1.67" class="f">p</text></symbol><symbol id="18"><text y="1.67" class="f">[eric@localhost</text><text x="16.032" y="1.67" class="f">~]$</text><text x="20.04" y="1.67" class="f">etcdctl</text><text x="28.056" y="1.67" class="f">pu</text></symbol><symbol id="19"><text y="1.67" class="f">[eric@localhost</text><text x="16.032" y="1.67" class="f">~]$</text><text x="20.04" y="1.67" class="f">etcdctl</text><text x="28.056" y="1.67" class="f">put</text></symbol><symbol id="2"><text y="1.67" class="f">[eric@localhost</text><text x="16.032" y="1.67" class="f">~]$</text><text x="20.04" y="1.67" class="f">e</text></symbol><symbol id="21"><text y="1.67" class="f">[eric@localhost</text><text x="16.032" y="1.67" class="f">~]$</text><text x="20.04" y="1.67" class="f">etcdctl</text><text x="28.056" y="1.67" class="f">put</text><text x="32.064" y="1.67" class="f">fo</text></symbol><symbol id="22"><text y="1.67" class="f">[eric@localhost</text><text x="16.032" y="1.67" class="f">~]$</text><text x="20.04" y="1.67" class="f">etcdctl</text><text x="28.056" y="1.67" class="f">put</text><text x="32.064" y="1.67" class="f">foo</text></symbol><symbol id="23"><text y="1.67" class="f">[eric@localhost</text><text x="16.032" y="1.67" class="f">~]$</text><text x="20.04" y="1.67" class="f">etcdctl</text><text x="28.056" y="1.67" class="f">put</text><text x="32.064" y="1.67" class="f">foo</text><text x="36.072" y="1.67" class="f">b</text></symbol><symbol id="24"><text y="1.67" class="f">[eric@localhost</text><text x="16.032" y="1.67" class="f">~]$</text><text x="20.04" y="1.67" class="f">etcdctl</text><text x="28.056" y="1.67" class="f">put</text><text x="32.064" y="1.67" class="f">foo</text><text x="36.072" y="1.67" class="f">ba</text></symbol><symbol id="25"><text y="1.67" class="f">[eric@localhost</text><text x="16.032" y="1.67" class="f">~]$</text><text x="20.04" y="1.67" class="f">etcdctl</text><text x="28.056" y="1.67" class="f">put</text><text x="32.064" y="1.67" class="f">foo</text><text x="36.072" y="1.67" class="f">bar</text></symbol><symbol id="26"><text y="1.67" class="f">OK</text></symbol><symbol id="27"><text y="1.67" class="f">[eric@localhost</text><text x="16.032" y="1.67" class="f">~]$</text><text x="20.04" y="1.67" class="f">etcdctl</text><text x="28.056" y="1.67" class="f">put</text><text x="32.064" y="1.67" class="f">foo</text><text x="36.072" y="1.67" class="f">baz</text></symbol><symbol id="28"><text y="1.67" class="f">[eric@localhost</text><text x="16.032" y="1.67" class="f">~]$</text><text x="20.04" y="1.67" class="f">etcdctl</text><text x="28.056" y="1.67" class="f">get</text><text x="32.064" y="1.67" class="f">foo</text></symbol><symbol id="29"><text y="1.67" class="f">[eric@localhost</text><text x="16.032" y="1.67" class="f">~]$</text><text x="20.04" y="1.67" class="f">etcdctl</text><text x="28.056" y="1.67" class="f">get</text><text x="32.064" y="1.67" class="f">foo</text><text x="36.072" y="1.67" class="f">--rev</text></symbol><symbol id="30"><text y="1.67" class="f">[eric@localhost</text><text x="16.032" y="1.67" class="f">~]$</text><text x="20.04" y="1.67" class="f">etcdctl</text><text x="28.056" y="1.67" class="f">get</text><text x="32.064" y="1.67" class="f">foo</text><text x="36.072" y="1.67" class="f">--rev</text><text x="42.084" y="1.67" class="f">761</text></symbol><symbol id="31"><text y="1.67" class="f">[eric@localhost</text><text x="16.032" y="1.67" class="f">~]$</text><text x="20.04" y="1.67" class="f">etcdctl</text><text x="28.056" y="1.67" class="f">get</text><text x="32.064" y="1.67" class="f">foo</text><text x="36.072" y="1.67" class="f">--rev</text><text x="42.084" y="1.67" class="f">7612</text></symbol><symbol id="32"><text y="1.67" class="f">[eric@localhost</text><text x="16.032" y="1.67" class="f">~]$</text><text x="20.04" y="1.67" class="f">etcdctl</text><text x="28.056" y="1.67" class="f">get</text><text x="32.064" y="1.67" class="f">foo</text><text x="36.072" y="1.67" class="f">--rev</text><text x="42.084" y="1.67" class="f">7613</text></symbol><symbol id="33"><text y="1.67" class="f">foo</text></symbol><symbol id="34"><text y="1.67" class="f">bar</text></symbol><symbol id="35"><text y="1.67" class="f">[eric@localhost</text><text x="16.032" y="1.67" class="f">~]$</text><text x="20.04" y="1.67" class="f">etcdctl</text><text x="28.056" y="1.67" class="f">get</text><text x="32.064" y="1.67" class="f">foo</text><text x="36.072" y="1.67" class="f">--rev</text><text x="42.084" y="1.67" class="f">7614</text></symbol><symbol id="36"><text y="1.67" class="f">baz</text></symbol><symbol id="a"><path fill="transparent" d="M0 0h80v24H0z"/></symbol><symbol id="b"><path fill="#6f7683" d="M0 0h1.102v2.171H0z"/></symbol></defs><path class="a" d="M0 0h80v52.104H0z"/><g style="animation-duration:41.411365s;animation-iteration-count:infinite;animation-name:i;animation-timing-function:steps(1,end)"><svg width="9600"><svg><use xlink:href="#a"/><use xlink:href="#b" x="-.004"/></svg><svg x="80"><use xlink:href="#a"/><use xlink:href="#b" x="-.004"/></svg><svg x="160"><use xlink:href="#a"/><use xlink:href="#b" x="19.996"/><use xlink:href="#1"/></svg><svg x="240"><use xlink:href="#a"/><use xlink:href="#b" x="20.996"/><use xlink:href="#2"/></svg><svg x="320"><use xlink:href="#a"/><use xlink:href="#b" x="21.996"/><use xlink:href="#3"/></svg><svg x="400"><use xlink:href="#a"/><use xlink:href="#b" x="22.996"/><use xlink:href="#4"/></svg><svg x="480"><use xlink:href="#a"/><use xlink:href="#b" x="23.996"/><use xlink:href="#5"/></svg><svg x="560"><use xlink:href="#a"/><use xlink:href="#b" x="24.996"/><use xlink:href="#6"/></svg><svg x="640"><use xlink:href="#a"/><use xlink:href="#b" x="25.996"/><use xlink:href="#7"/></svg><svg x="720"><use xlink:href="#a"/><use xlink:href="#b" x="26.996"/><use xlink:href="#8"/></svg><svg x="800"><use xlink:href="#a"/><use xlink:href="#b" x="27.996"/><use xlink:href="#8"/></svg><svg x="880"><use xlink:href="#a"/><use xlink:href="#b" x="28.996"/><use xlink:href="#9"/></svg><svg x="960"><use xlink:href="#a"/><use xlink:href="#b" x="29.996"/><use xlink:href="#10"/></svg><svg x="1040"><use xlink:href="#a"/><use xlink:href="#b" x="30.996"/><use xlink:href="#11"/></svg><svg x="1120"><use xlink:href="#a"/><use xlink:href="#b" x="31.996"/><use xlink:href="#11"/></svg><svg x="1200"><use xlink:href="#a"/><use xlink:href="#b" x="32.996"/><use xlink:href="#12"/></svg><svg x="1280"><use xlink:href="#a"/><use xlink:href="#b" x="33.996"/><use xlink:href="#12"/></svg><svg x="1360"><use xlink:href="#a"/><use xlink:href="#b" x="34.996"/><text y="1.67" class="f">[eric@localhost</text><text x="16.032" y="1.67" class="f">~]$</text><text x="20.04" y="1.67" class="f">etcdctl</text><text x="28.056" y="1.67" class="f">get</text><text x="32.064" y="1.67" class="f">/</text><text x="34.068" y="1.67" class="f">-</text></svg><svg x="1440"><use xlink:href="#a"/><use xlink:href="#b" x="35.996"/><use xlink:href="#13"/></svg><svg x="1520"><use xlink:href="#a"/><use xlink:href="#b" x="36.996"/><use xlink:href="#13"/></svg><svg x="1600"><use xlink:href="#a"/><use xlink:href="#b" x="37.996"/><text y="1.67" class="f">[eric@localhost</text><text x="16.032" y="1.67" class="f">~]$</text><text x="20.04" y="1.67" class="f">etcdctl</text><text x="28.056" y="1.67" class="f">get</text><text x="32.064" y="1.67" class="f">/</text><text x="34.068" y="1.67" class="f">-w</text><text x="37.074" y="1.67" class="f">j</text></svg><svg x="1680"><use xlink:href="#a"/><use xlink:href="#b" x="38.996"/><text y="1.67" class="f">[eric@localhost</text><text x="16.032" y="1.67" class="f">~]$</text><text x="20.04" y="1.67" class="f">etcdctl</text><text x="28.056" y="1.67" class="f">get</text><text x="32.064" y="1.67" class="f">/</text><text x="34.068" y="1.67" class="f">-w</text><text x="37.074" y="1.67" class="f">js</text></svg><svg x="1760"><use xlink:href="#a"/><use xlink:href="#b" x="39.996"/><text y="1.67" class="f">[eric@localhost</text><text x="16.032" y="1.67" class="f">~]$</text><text x="20.04" y="1.67" class="f">etcdctl</text><text x="28.056" y="1.67" class="f">get</text><text x="32.064" y="1.67" class="f">/</text><text x="34.068" y="1.67" class="f">-w</text><text x="37.074" y="1.67" class="f">jso</text></svg><svg x="1840"><use xlink:href="#a"/><use xlink:href="#b" x="40.996"/><use xlink:href="#14"/></svg><svg x="1920"><use xlink:href="#a"/><use xlink:href="#b" x="-.004" y="2.146"/><use xlink:href="#14"/></svg><svg x="2000"><use xlink:href="#a"/><use xlink:href="#b" x="-.004" y="6.488"/><use xlink:href="#14"/><use xlink:href="#15" y="2.171"/><use xlink:href="#16" y="4.342"/></svg><svg x="2080"><use xlink:href="#a"/><use xlink:href="#b" x="-.004" y="6.488"/><use xlink:href="#14"/><use xlink:href="#15" y="2.171"/><use xlink:href="#16" y="4.342"/></svg><svg x="2160"><use xlink:href="#a"/><use xlink:href="#b" x="19.996" y="6.488"/><use xlink:href="#14"/><use xlink:href="#15" y="2.171"/><use xlink:href="#16" y="4.342"/><use xlink:href="#1" y="6.513"/></svg><svg x="2240"><use xlink:href="#a"/><use xlink:href="#b" x="20.996" y="6.488"/><use xlink:href="#14"/><use xlink:href="#15" y="2.171"/><use xlink:href="#16" y="4.342"/><use xlink:href="#2" y="6.513"/></svg><svg x="2320"><use xlink:href="#a"/><use xlink:href="#b" x="21.996" y="6.488"/><use xlink:href="#14"/><use xlink:href="#15" y="2.171"/><use xlink:href="#16" y="4.342"/><use xlink:href="#3" y="6.513"/></svg><svg x="2400"><use xlink:href="#a"/><use xlink:href="#b" x="22.996" y="6.488"/><use xlink:href="#14"/><use xlink:href="#15" y="2.171"/><use xlink:href="#16" y="4.342"/><use xlink:href="#4" y="6.513"/></svg><svg x="2480"><use xlink:href="#a"/><use xlink:href="#b" x="23.996" y="6.488"/><use xlink:href="#14"/><use xlink:href="#15" y="2.171"/><use xlink:href="#16" y="4.342"/><use xlink:href="#5" y="6.513"/></svg><svg x="2560"><use xlink:href="#a"/><use xlink:href="#b" x="24.996" y="6.488"/><use xlink:href="#14"/><use xlink:href="#15" y="2.171"/><use xlink:href="#16" y="4.342"/><use xlink:href="#6" y="6.513"/></svg><svg x="2640"><use xlink:href="#a"/><use xlink:href="#b" x="25.996" y="6.488"/><use xlink:href="#14"/><use xlink:href="#15" y="2.171"/><use xlink:href="#16" y="4.342"/><use xlink:href="#7" y="6.513"/></svg><svg x="2720"><use xlink:href="#a"/><use xlink:href="#b" x="26.996" y="6.488"/><use xlink:href="#14"/><use xlink:href="#15" y="2.171"/><use xlink:href="#16" y="4.342"/><use xlink:href="#8" y="6.513"/></svg><svg x="2800"><use xlink:href="#a"/><use xlink:href="#b" x="27.996" y="6.488"/><use xlink:href="#14"/><use xlink:href="#15" y="2.171"/><use xlink:href="#16" y="4.342"/><use xlink:href="#8" y="6.513"/></svg><svg x="2880"><use xlink:href="#a"/><use xlink:href="#b" x="28.996" y="6.488"/><use xlink:href="#14"/><use xlink:href="#15" y="2.171"/><use xlink:href="#16" y="4.342"/><use xlink:href="#17" y="6.513"/></svg><svg x="2960"><use xlink:href="#a"/><use xlink:href="#b" x="29.996" y="6.488"/><use xlink:href="#14"/><use xlink:href="#15" y="2.171"/><use xlink:href="#16" y="4.342"/><use xlink:href="#18" y="6.513"/></svg><svg x="3040"><use xlink:href="#a"/><use xlink:href="#b" x="30.996" y="6.488"/><use xlink:href="#14"/><use xlink:href="#15" y="2.171"/><use xlink:href="#16" y="4.342"/><use xlink:href="#19" y="6.513"/></svg><svg x="3120"><use xlink:href="#a"/><use xlink:href="#b" x="31.996" y="6.488"/><use xlink:href="#14"/><use xlink:href="#15" y="2.171"/><use xlink:href="#16" y="4.342"/><use xlink:href="#19" y="6.513"/></svg><svg x="3200"><use xlink:href="#a"/><use xlink:href="#b" x="32.996" y="6.488"/><use xlink:href="#14"/><use xlink:href="#15" y="2.171"/><use xlink:href="#16" y="4.342"/><use xlink:href="#20" y="6.513"/></svg><svg x="3280"><use xlink:href="#a"/><use xlink:href="#b" x="33.996" y="6.488"/><use xlink:href="#14"/><use xlink:href="#15" y="2.171"/><use xlink:href="#16" y="4.342"/><use xlink:href="#21" y="6.513"/></svg><svg x="3360"><use xlink:href="#a"/><use xlink:href="#b" x="34.996" y="6.488"/><use xlink:href="#14"/><use xlink:href="#15" y="2.171"/><use xlink:href="#16" y="4.342"/><use xlink:href="#22" y="6.513"/></svg><svg x="3440"><use xlink:href="#a"/><use xlink:href="#b" x="35.996" y="6.488"/><use xlink:href="#14"/><use xlink:href="#15" y="2.171"/><use xlink:href="#16" y="4.342"/><use xlink:href="#22" y="6.513"/></svg><svg x="3520"><use xlink:href="#a"/><use xlink:href="#b" x="36.996" y="6.488"/><use xlink:href="#14"/><use xlink:href="#15" y="2.171"/><use xlink:href="#16" y="4.342"/><use xlink:href="#23" y="6.513"/></svg><svg x="3600"><use xlink:href="#a"/><use xlink:href="#b" x="37.996" y="6.488"/><use xlink:href="#14"/><use xlink:href="#15" y="2.171"/><use xlink:href="#16" y="4.342"/><use xlink:href="#24" y="6.513"/></svg><svg x="3680"><use xlink:href="#a"/><use xlink:href="#b" x="38.996" y="6.488"/><use xlink:href="#14"/><use xlink:href="#15" y="2.171"/><use xlink:href="#16" y="4.342"/><use xlink:href="#25" y="6.513"/></svg><svg x="3760"><use xlink:href="#a"/><use xlink:href="#b" x="-.004" y="8.659"/><use xlink:href="#14"/><use xlink:href="#15" y="2.171"/><use xlink:href="#16" y="4.342"/><use xlink:href="#25" y="6.513"/></svg><svg x="3840"><use xlink:href="#a"/><use xlink:href="#b" x="-.004" y="10.83"/><use xlink:href="#14"/><use xlink:href="#15" y="2.171"/><use xlink:href="#16" y="4.342"/><use xlink:href="#25" y="6.513"/><use xlink:href="#26" y="8.684"/></svg><svg x="3920"><use xlink:href="#a"/><use xlink:href="#b" x="-.004" y="10.83"/><use xlink:href="#14"/><use xlink:href="#15" y="2.171"/><use xlink:href="#16" y="4.342"/><use xlink:href="#25" y="6.513"/><use xlink:href="#26" y="8.684"/></svg><svg x="4000"><use xlink:href="#a"/><use xlink:href="#b" x="19.996" y="10.83"/><use xlink:href="#14"/><use xlink:href="#15" y="2.171"/><use xlink:href="#16" y="4.342"/><use xlink:href="#25" y="6.513"/><use xlink:href="#26" y="8.684"/><use xlink:href="#1" y="10.855"/></svg><svg x="4080"><use xlink:href="#a"/><use xlink:href="#b" x="20.996" y="10.83"/><use xlink:href="#14"/><use xlink:href="#15" y="2.171"/><use xlink:href="#16" y="4.342"/><use xlink:href="#25" y="6.513"/><use xlink:href="#26" y="8.684"/><use xlink:href="#2" y="10.855"/></svg><svg x="4160"><use xlink:href="#a"/><use xlink:href="#b" x="21.996" y="10.83"/><use xlink:href="#14"/><use xlink:href="#15" y="2.171"/><use xlink:href="#16" y="4.342"/><use xlink:href="#25" y="6.513"/><use xlink:href="#26" y="8.684"/><use xlink:href="#3" y="10.855"/></svg><svg x="4240"><use xlink:href="#a"/><use xlink:href="#b" x="22.996" y="10.83"/><use xlink:href="#14"/><use xlink:href="#15" y="2.171"/><use xlink:href="#16" y="4.342"/><use xlink:href="#25" y="6.513"/><use xlink:href="#26" y="8.684"/><use xlink:href="#4" y="10.855"/></svg><svg x="4320"><use xlink:href="#a"/><use xlink:href="#b" x="23.996" y="10.83"/><use xlink:href="#14"/><use xlink:href="#15" y="2.171"/><use xlink:href="#16" y="4.342"/><use xlink:href="#25" y="6.513"/><use xlink:href="#26" y="8.684"/><use xlink:href="#5" y="10.855"/></svg><svg x="4400"><use xlink:href="#a"/><use xlink:href="#b" x="24.996" y="10.83"/><use xlink:href="#14"/><use xlink:href="#15" y="2.171"/><use xlink:href="#16" y="4.342"/><use xlink:href="#25" y="6.513"/><use xlink:href="#26" y="8.684"/><text y="12.525" class="f">[eric@localhost</text><text x="16.032" y="12.525" class="f">~]$</text><text x="20.04" y="12.525" class="f">etcdt</text></svg><svg x="4480"><use xlink:href="#a"/><use xlink:href="#b" x="23.996" y="10.83"/><use xlink:href="#14"/><use xlink:href="#15" y="2.171"/><use xlink:href="#16" y="4.342"/><use xlink:href="#25" y="6.513"/><use xlink:href="#26" y="8.684"/><use xlink:href="#5" y="10.855"/></svg><svg x="4560"><use xlink:href="#a"/><use xlink:href="#b" x="24.996" y="10.83"/><use xlink:href="#14"/><use xlink:href="#15" y="2.171"/><use xlink:href="#16" y="4.342"/><use xlink:href="#25" y="6.513"/><use xlink:href="#26" y="8.684"/><use xlink:href="#6" y="10.855"/></svg><svg x="4640"><use xlink:href="#a"/><use xlink:href="#b" x="25.996" y="10.83"/><use xlink:href="#14"/><use xlink:href="#15" y="2.171"/><use xlink:href="#16" y="4.342"/><use xlink:href="#25" y="6.513"/><use xlink:href="#26" y="8.684"/><use xlink:href="#7" y="10.855"/></svg><svg x="4720"><use xlink:href="#a"/><use xlink:href="#b" x="26.996" y="10.83"/><use xlink:href="#14"/><use xlink:href="#15" y="2.171"/><use xlink:href="#16" y="4.342"/><use xlink:href="#25" y="6.513"/><use xlink:href="#26" y="8.684"/><use xlink:href="#8" y="10.855"/></svg><svg x="4800"><use xlink:href="#a"/><use xlink:href="#b" x="27.996" y="10.83"/><use xlink:href="#14"/><use xlink:href="#15" y="2.171"/><use xlink:href="#16" y="4.342"/><use xlink:href="#25" y="6.513"/><use xlink:href="#26" y="8.684"/><use xlink:href="#8" y="10.855"/></svg><svg x="4880"><use xlink:href="#a"/><use xlink:href="#b" x="28.996" y="10.83"/><use xlink:href="#14"/><use xlink:href="#15" y="2.171"/><use xlink:href="#16" y="4.342"/><use xlink:href="#25" y="6.513"/><use xlink:href="#26" y="8.684"/><use xlink:href="#17" y="10.855"/></svg><svg x="4960"><use xlink:href="#a"/><use xlink:href="#b" x="29.996" y="10.83"/><use xlink:href="#14"/><use xlink:href="#15" y="2.171"/><use xlink:href="#16" y="4.342"/><use xlink:href="#25" y="6.513"/><use xlink:href="#26" y="8.684"/><use xlink:href="#18" y="10.855"/></svg><svg x="5040"><use xlink:href="#a"/><use xlink:href="#b" x="30.996" y="10.83"/><use xlink:href="#14"/><use xlink:href="#15" y="2.171"/><use xlink:href="#16" y="4.342"/><use xlink:href="#25" y="6.513"/><use xlink:href="#26" y="8.684"/><use xlink:href="#19" y="10.855"/></svg><svg x="5120"><use xlink:href="#a"/><use xlink:href="#b" x="31.996" y="10.83"/><use xlink:href="#14"/><use xlink:href="#15" y="2.171"/><use xlink:href="#16" y="4.342"/><use xlink:href="#25" y="6.513"/><use xlink:href="#26" y="8.684"/><use xlink:href="#19" y="10.855"/></svg><svg x="5200"><use xlink:href="#a"/><use xlink:href="#b" x="32.996" y="10.83"/><use xlink:href="#14"/><use xlink:href="#15" y="2.171"/><use xlink:href="#16" y="4.342"/><use xlink:href="#25" y="6.513"/><use xlink:href="#26" y="8.684"/><use xlink:href="#20" y="10.855"/></svg><svg x="5280"><use xlink:href="#a"/><use xlink:href="#b" x="33.996" y="10.83"/><use xlink:href="#14"/><use xlink:href="#15" y="2.171"/><use xlink:href="#16" y="4.342"/><use xlink:href="#25" y="6.513"/><use xlink:href="#26" y="8.684"/><use xlink:href="#21" y="10.855"/></svg><svg x="5360"><use xlink:href="#a"/><use xlink:href="#b" x="34.996" y="10.83"/><use xlink:href="#14"/><use xlink:href="#15" y="2.171"/><use xlink:href="#16" y="4.342"/><use xlink:href="#25" y="6.513"/><use xlink:href="#26" y="8.684"/><use xlink:href="#22" y="10.855"/></svg><svg x="5440"><use xlink:href="#a"/><use xlink:href="#b" x="35.996" y="10.83"/><use xlink:href="#14"/><use xlink:href="#15" y="2.171"/><use xlink:href="#16" y="4.342"/><use xlink:href="#25" y="6.513"/><use xlink:href="#26" y="8.684"/><use xlink:href="#22" y="10.855"/></svg><svg x="5520"><use xlink:href="#a"/><use xlink:href="#b" x="36.996" y="10.83"/><use xlink:href="#14"/><use xlink:href="#15" y="2.171"/><use xlink:href="#16" y="4.342"/><use xlink:href="#25" y="6.513"/><use xlink:href="#26" y="8.684"/><use xlink:href="#23" y="10.855"/></svg><svg x="5600"><use xlink:href="#a"/><use xlink:href="#b" x="37.996" y="10.83"/><use xlink:href="#14"/><use xlink:href="#15" y="2.171"/><use xlink:href="#16" y="4.342"/><use xlink:href="#25" y="6.513"/><use xlink:href="#26" y="8.684"/><use xlink:href="#24" y="10.855"/></svg><svg x="5680"><use xlink:href="#a"/><use xlink:href="#b" x="38.996" y="10.83"/><use xlink:href="#14"/><use xlink:href="#15" y="2.171"/><use xlink:href="#16" y="4.342"/><use xlink:href="#25" y="6.513"/><use xlink:href="#26" y="8.684"/><use xlink:href="#27" y="10.855"/></svg><svg x="5760"><use xlink:href="#a"/><use xlink:href="#b" x="-.004" y="13.001"/><use xlink:href="#14"/><use xlink:href="#15" y="2.171"/><use xlink:href="#16" y="4.342"/><use xlink:href="#25" y="6.513"/><use xlink:href="#26" y="8.684"/><use xlink:href="#27" y="10.855"/></svg><svg x="5840"><use xlink:href="#a"/><use xlink:href="#b" x="-.004" y="15.172"/><use xlink:href="#14"/><use xlink:href="#15" y="2.171"/><use xlink:href="#16" y="4.342"/><use xlink:href="#25" y="6.513"/><use xlink:href="#26" y="8.684"/><use xlink:href="#27" y="10.855"/><use xlink:href="#26" y="13.026"/></svg><svg x="5920"><use xlink:href="#a"/><use xlink:href="#b" x="-.004" y="15.172"/><use xlink:href="#14"/><use xlink:href="#15" y="2.171"/><use xlink:href="#16" y="4.342"/><use xlink:href="#25" y="6.513"/><use xlink:href="#26" y="8.684"/><use xlink:href="#27" y="10.855"/><use xlink:href="#26" y="13.026"/></svg><svg x="6000"><use xlink:href="#a"/><use xlink:href="#b" x="19.996" y="15.172"/><use xlink:href="#14"/><use xlink:href="#15" y="2.171"/><use xlink:href="#16" y="4.342"/><use xlink:href="#25" y="6.513"/><use xlink:href="#26" y="8.684"/><use xlink:href="#27" y="10.855"/><use xlink:href="#26" y="13.026"/><use xlink:href="#1" y="15.197"/></svg><svg x="6080"><use xlink:href="#a"/><use xlink:href="#b" x="20.996" y="15.172"/><use xlink:href="#14"/><use xlink:href="#15" y="2.171"/><use xlink:href="#16" y="4.342"/><use xlink:href="#25" y="6.513"/><use xlink:href="#26" y="8.684"/><use xlink:href="#27" y="10.855"/><use xlink:href="#26" y="13.026"/><use xlink:href="#2" y="15.197"/></svg><svg x="6160"><use xlink:href="#a"/><use xlink:href="#b" x="21.996" y="15.172"/><use xlink:href="#14"/><use xlink:href="#15" y="2.171"/><use xlink:href="#16" y="4.342"/><use xlink:href="#25" y="6.513"/><use xlink:href="#26" y="8.684"/><use xlink:href="#27" y="10.855"/><use xlink:href="#26" y="13.026"/><use xlink:href="#3" y="15.197"/></svg><svg x="6240"><use xlink:href="#a"/><use xlink:href="#b" x="22.996" y="15.172"/><use xlink:href="#14"/><use xlink:href="#15" y="2.171"/><use xlink:href="#16" y="4.342"/><use xlink:href="#25" y="6.513"/><use xlink:href="#26" y="8.684"/><use xlink:href="#27" y="10.855"/><use xlink:href="#26" y="13.026"/><use xlink:href="#4" y="15.197"/></svg><svg x="6320"><use xlink:href="#a"/><use xlink:href="#b" x="23.996" y="15.172"/><use xlink:href="#14"/><use xlink:href="#15" y="2.171"/><use xlink:href="#16" y="4.342"/><use xlink:href="#25" y="6.513"/><use xlink:href="#26" y="8.684"/><use xlink:href="#27" y="10.855"/><use xlink:href="#26" y="13.026"/><use xlink:href="#5" y="15.197"/></svg><svg x="6400"><use xlink:href="#a"/><use xlink:href="#b" x="24.996" y="15.172"/><use xlink:href="#14"/><use xlink:href="#15" y="2.171"/><use xlink:href="#16" y="4.342"/><use xlink:href="#25" y="6.513"/><use xlink:href="#26" y="8.684"/><use xlink:href="#27" y="10.855"/><use xlink:href="#26" y="13.026"/><use xlink:href="#6" y="15.197"/></svg><svg x="6480"><use xlink:href="#a"/><use xlink:href="#b" x="25.996" y="15.172"/><use xlink:href="#14"/><use xlink:href="#15" y="2.171"/><use xlink:href="#16" y="4.342"/><use xlink:href="#25" y="6.513"/><use xlink:href="#26" y="8.684"/><use xlink:href="#27" y="10.855"/><use xlink:href="#26" y="13.026"/><use xlink:href="#7" y="15.197"/></svg><svg x="6560"><use xlink:href="#a"/><use xlink:href="#b" x="26.996" y="15.172"/><use xlink:href="#14"/><use xlink:href="#15" y="2.171"/><use xlink:href="#16" y="4.342"/><use xlink:href="#25" y="6.513"/><use xlink:href="#26" y="8.684"/><use xlink:href="#27" y="10.855"/><use xlink:href="#26" y="13.026"/><use xlink:href="#8" y="15.197"/></svg><svg x="6640"><use xlink:href="#a"/><use xlink:href="#b" x="27.996" y="15.172"/><use xlink:href="#14"/><use xlink:href="#15" y="2.171"/><use xlink:href="#16" y="4.342"/><use xlink:href="#25" y="6.513"/><use xlink:href="#26" y="8.684"/><use xlink:href="#27" y="10.855"/><use xlink:href="#26" y="13.026"/><use xlink:href="#8" y="15.197"/></svg><svg x="6720"><use xlink:href="#a"/><use xlink:href="#b" x="28.996" y="15.172"/><use xlink:href="#14"/><use xlink:href="#15" y="2.171"/><use xlink:href="#16" y="4.342"/><use xlink:href="#25" y="6.513"/><use xlink:href="#26" y="8.684"/><use xlink:href="#27" y="10.855"/><use xlink:href="#26" y="13.026"/><use xlink:href="#9" y="15.197"/></svg><svg x="6800"><use xlink:href="#a"/><use xlink:href="#b" x="29.996" y="15.172"/><use xlink:href="#14"/><use xlink:href="#15" y="2.171"/><use xlink:href="#16" y="4.342"/><use xlink:href="#25" y="6.513"/><use xlink:href="#26" y="8.684"/><use xlink:href="#27" y="10.855"/><use xlink:href="#26" y="13.026"/><use xlink:href="#10" y="15.197"/></svg><svg x="6880"><use xlink:href="#a"/><use xlink:href="#b" x="30.996" y="15.172"/><use xlink:href="#14"/><use xlink:href="#15" y="2.171"/><use xlink:href="#16" y="4.342"/><use xlink:href="#25" y="6.513"/><use xlink:href="#26" y="8.684"/><use xlink:href="#27" y="10.855"/><use xlink:href="#26" y="13.026"/><use xlink:href="#11" y="15.197"/></svg><svg x="6960"><use xlink:href="#a"/><use xlink:href="#b" x="31.996" y="15.172"/><use xlink:href="#14"/><use xlink:href="#15" y="2.171"/><use xlink:href="#16" y="4.342"/><use xlink:href="#25" y="6.513"/><use xlink:href="#26" y="8.684"/><use xlink:href="#27" y="10.855"/><use xlink:href="#26" y="13.026"/><use xlink:href="#11" y="15.197"/></svg><svg x="7040"><use xlink:href="#a"/><use xlink:href="#b" x="32.996" y="15.172"/><use xlink:href="#14"/><use xlink:href="#15" y="2.171"/><use xlink:href="#16" y="4.342"/><use xlink:href="#25" y="6.513"/><use xlink:href="#26" y="8.684"/><use xlink:href="#27" y="10.855"/><use xlink:href="#26" y="13.026"/><text y="16.867" class="f">[eric@localhost</text><text x="16.032" y="16.867" class="f">~]$</text><text x="20.04" y="16.867" class="f">etcdctl</text><text x="28.056" y="16.867" class="f">get</text><text x="32.064" y="16.867" class="f">f</text></svg><svg x="7120"><use xlink:href="#a"/><use xlink:href="#b" x="33.996" y="15.172"/><use xlink:href="#14"/><use xlink:href="#15" y="2.171"/><use xlink:href="#16" y="4.342"/><use xlink:href="#25" y="6.513"/><use xlink:href="#26" y="8.684"/><use xlink:href="#27" y="10.855"/><use xlink:href="#26" y="13.026"/><text y="16.867" class="f">[eric@localhost</text><text x="16.032" y="16.867" class="f">~]$</text><text x="20.04" y="16.867" class="f">etcdctl</text><text x="28.056" y="16.867" class="f">get</text><text x="32.064" y="16.867" class="f">fo</text></svg><svg x="7200"><use xlink:href="#a"/><use xlink:href="#b" x="34.996" y="15.172"/><use xlink:href="#14"/><use xlink:href="#15" y="2.171"/><use xlink:href="#16" y="4.342"/><use xlink:href="#25" y="6.513"/><use xlink:href="#26" y="8.684"/><use xlink:href="#27" y="10.855"/><use xlink:href="#26" y="13.026"/><use xlink:href="#28" y="15.197"/></svg><svg x="7280"><use xlink:href="#a"/><use xlink:href="#b" x="35.996" y="15.172"/><use xlink:href="#14"/><use xlink:href="#15" y="2.171"/><use xlink:href="#16" y="4.342"/><use xlink:href="#25" y="6.513"/><use xlink:href="#26" y="8.684"/><use xlink:href="#27" y="10.855"/><use xlink:href="#26" y="13.026"/><use xlink:href="#28" y="15.197"/></svg><svg x="7360"><use xlink:href="#a"/><use xlink:href="#b" x="36.996" y="15.172"/><use xlink:href="#14"/><use xlink:href="#15" y="2.171"/><use xlink:href="#16" y="4.342"/><use xlink:href="#25" y="6.513"/><use xlink:href="#26" y="8.684"/><use xlink:href="#27" y="10.855"/><use xlink:href="#26" y="13.026"/><text y="16.867" class="f">[eric@localhost</text><text x="16.032" y="16.867" class="f">~]$</text><text x="20.04" y="16.867" class="f">etcdctl</text><text x="28.056" y="16.867" class="f">get</text><text x="32.064" y="16.867" class="f">foo</text><text x="36.072" y="16.867" class="f">-</text></svg><svg x="7440"><use xlink:href="#a"/><use xlink:href="#b" x="37.996" y="15.172"/><use xlink:href="#14"/><use xlink:href="#15" y="2.171"/><use xlink:href="#16" y="4.342"/><use xlink:href="#25" y="6.513"/><use xlink:href="#26" y="8.684"/><use xlink:href="#27" y="10.855"/><use xlink:href="#26" y="13.026"/><text y="16.867" class="f">[eric@localhost</text><text x="16.032" y="16.867" class="f">~]$</text><text x="20.04" y="16.867" class="f">etcdctl</text><text x="28.056" y="16.867" class="f">get</text><text x="32.064" y="16.867" class="f">foo</text><text x="36.072" y="16.867" class="f">--</text></svg><svg x="7520"><use xlink:href="#a"/><use xlink:href="#b" x="38.996" y="15.172"/><use xlink:href="#14"/><use xlink:href="#15" y="2.171"/><use xlink:href="#16" y="4.342"/><use xlink:href="#25" y="6.513"/><use xlink:href="#26" y="8.684"/><use xlink:href="#27" y="10.855"/><use xlink:href="#26" y="13.026"/><text y="16.867" class="f">[eric@localhost</text><text x="16.032" y="16.867" class="f">~]$</text><text x="20.04" y="16.867" class="f">etcdctl</text><text x="28.056" y="16.867" class="f">get</text><text x="32.064" y="16.867" class="f">foo</text><text x="36.072" y="16.867" class="f">--r</text></svg><svg x="7600"><use xlink:href="#a"/><use xlink:href="#b" x="39.996" y="15.172"/><use xlink:href="#14"/><use xlink:href="#15" y="2.171"/><use xlink:href="#16" y="4.342"/><use xlink:href="#25" y="6.513"/><use xlink:href="#26" y="8.684"/><use xlink:href="#27" y="10.855"/><use xlink:href="#26" y="13.026"/><text y="16.867" class="f">[eric@localhost</text><text x="16.032" y="16.867" class="f">~]$</text><text x="20.04" y="16.867" class="f">etcdctl</text><text x="28.056" y="16.867" class="f">get</text><text x="32.064" y="16.867" class="f">foo</text><text x="36.072" y="16.867" class="f">--re</text></svg><svg x="7680"><use xlink:href="#a"/><use xlink:href="#b" x="40.996" y="15.172"/><use xlink:href="#14"/><use xlink:href="#15" y="2.171"/><use xlink:href="#16" y="4.342"/><use xlink:href="#25" y="6.513"/><use xlink:href="#26" y="8.684"/><use xlink:href="#27" y="10.855"/><use xlink:href="#26" y="13.026"/><use xlink:href="#29" y="15.197"/></svg><svg x="7760"><use xlink:href="#a"/><use xlink:href="#b" x="41.996" y="15.172"/><use xlink:href="#14"/><use xlink:href="#15" y="2.171"/><use xlink:href="#16" y="4.342"/><use xlink:href="#25" y="6.513"/><use xlink:href="#26" y="8.684"/><use xlink:href="#27" y="10.855"/><use xlink:href="#26" y="13.026"/><use xlink:href="#29" y="15.197"/></svg><svg x="7840"><use xlink:href="#a"/><use xlink:href="#b" x="42.996" y="15.172"/><use xlink:href="#14"/><use xlink:href="#15" y="2.171"/><use xlink:href="#16" y="4.342"/><use xlink:href="#25" y="6.513"/><use xlink:href="#26" y="8.684"/><use xlink:href="#27" y="10.855"/><use xlink:href="#26" y="13.026"/><text y="16.867" class="f">[eric@localhost</text><text x="16.032" y="16.867" class="f">~]$</text><text x="20.04" y="16.867" class="f">etcdctl</text><text x="28.056" y="16.867" class="f">get</text><text x="32.064" y="16.867" class="f">foo</text><text x="36.072" y="16.867" class="f">--rev</text><text x="42.084" y="16.867" class="f">7</text></svg><svg x="7920"><use xlink:href="#a"/><use xlink:href="#b" x="43.996" y="15.172"/><use xlink:href="#14"/><use xlink:href="#15" y="2.171"/><use xlink:href="#16" y="4.342"/><use xlink:href="#25" y="6.513"/><use xlink:href="#26" y="8.684"/><use xlink:href="#27" y="10.855"/><use xlink:href="#26" y="13.026"/><text y="16.867" class="f">[eric@localhost</text><text x="16.032" y="16.867" class="f">~]$</text><text x="20.04" y="16.867" class="f">etcdctl</text><text x="28.056" y="16.867" class="f">get</text><text x="32.064" y="16.867" class="f">foo</text><text x="36.072" y="16.867" class="f">--rev</text><text x="42.084" y="16.867" class="f">76</text></svg><svg x="8000"><use xlink:href="#a"/><use xlink:href="#b" x="44.996" y="15.172"/><use xlink:href="#14"/><use xlink:href="#15" y="2.171"/><use xlink:href="#16" y="4.342"/><use xlink:href="#25" y="6.513"/><use xlink:href="#26" y="8.684"/><use xlink:href="#27" y="10.855"/><use xlink:href="#26" y="13.026"/><use xlink:href="#30" y="15.197"/></svg><svg x="8080"><use xlink:href="#a"/><use xlink:href="#b" x="45.996" y="15.172"/><use xlink:href="#14"/><use xlink:href="#15" y="2.171"/><use xlink:href="#16" y="4.342"/><use xlink:href="#25" y="6.513"/><use xlink:href="#26" y="8.684"/><use xlink:href="#27" y="10.855"/><use xlink:href="#26" y="13.026"/><use xlink:href="#31" y="15.197"/></svg><svg x="8160"><use xlink:href="#a"/><use xlink:href="#b" x="-.004" y="17.343"/><use xlink:href="#14"/><use xlink:href="#15" y="2.171"/><use xlink:href="#16" y="4.342"/><use xlink:href="#25" y="6.513"/><use xlink:href="#26" y="8.684"/><use xlink:href="#27" y="10.855"/><use xlink:href="#26" y="13.026"/><use xlink:href="#31" y="15.197"/></svg><svg x="8240"><use xlink:href="#a"/><use xlink:href="#b" x="-.004" y="17.343"/><use xlink:href="#14"/><use xlink:href="#15" y="2.171"/><use xlink:href="#16" y="4.342"/><use xlink:href="#25" y="6.513"/><use xlink:href="#26" y="8.684"/><use xlink:href="#27" y="10.855"/><use xlink:href="#26" y="13.026"/><use xlink:href="#31" y="15.197"/></svg><svg x="8320"><use xlink:href="#a"/><use xlink:href="#b" x="19.996" y="17.343"/><use xlink:href="#14"/><use xlink:href="#15" y="2.171"/><use xlink:href="#16" y="4.342"/><use xlink:href="#25" y="6.513"/><use xlink:href="#26" y="8.684"/><use xlink:href="#27" y="10.855"/><use xlink:href="#26" y="13.026"/><use xlink:href="#31" y="15.197"/><use xlink:href="#1" y="17.368"/></svg><svg x="8400"><use xlink:href="#a"/><use xlink:href="#b" x="45.996" y="17.343"/><use xlink:href="#14"/><use xlink:href="#15" y="2.171"/><use xlink:href="#16" y="4.342"/><use xlink:href="#25" y="6.513"/><use xlink:href="#26" y="8.684"/><use xlink:href="#27" y="10.855"/><use xlink:href="#26" y="13.026"/><use xlink:href="#31" y="15.197"/><use xlink:href="#31" y="17.368"/></svg><svg x="8480"><use xlink:href="#a"/><use xlink:href="#b" x="44.996" y="17.343"/><use xlink:href="#14"/><use xlink:href="#15" y="2.171"/><use xlink:href="#16" y="4.342"/><use xlink:href="#25" y="6.513"/><use xlink:href="#26" y="8.684"/><use xlink:href="#27" y="10.855"/><use xlink:href="#26" y="13.026"/><use xlink:href="#31" y="15.197"/><use xlink:href="#30" y="17.368"/></svg><svg x="8560"><use xlink:href="#a"/><use xlink:href="#b" x="45.996" y="17.343"/><use xlink:href="#14"/><use xlink:href="#15" y="2.171"/><use xlink:href="#16" y="4.342"/><use xlink:href="#25" y="6.513"/><use xlink:href="#26" y="8.684"/><use xlink:href="#27" y="10.855"/><use xlink:href="#26" y="13.026"/><use xlink:href="#31" y="15.197"/><use xlink:href="#32" y="17.368"/></svg><svg x="8640"><use xlink:href="#a"/><use xlink:href="#b" x="-.004" y="19.514"/><use xlink:href="#14"/><use xlink:href="#15" y="2.171"/><use xlink:href="#16" y="4.342"/><use xlink:href="#25" y="6.513"/><use xlink:href="#26" y="8.684"/><use xlink:href="#27" y="10.855"/><use xlink:href="#26" y="13.026"/><use xlink:href="#31" y="15.197"/><use xlink:href="#32" y="17.368"/></svg><svg x="8720"><use xlink:href="#a"/><use xlink:href="#b" x="-.004" y="23.856"/><use xlink:href="#14"/><use xlink:href="#15" y="2.171"/><use xlink:href="#16" y="4.342"/><use xlink:href="#25" y="6.513"/><use xlink:href="#26" y="8.684"/><use xlink:href="#27" y="10.855"/><use xlink:href="#26" y="13.026"/><use xlink:href="#31" y="15.197"/><use xlink:href="#32" y="17.368"/><use xlink:href="#33" y="19.539"/><use xlink:href="#34" y="21.71"/></svg><svg x="8800"><use xlink:href="#a"/><use xlink:href="#b" x="-.004" y="23.856"/><use xlink:href="#14"/><use xlink:href="#15" y="2.171"/><use xlink:href="#16" y="4.342"/><use xlink:href="#25" y="6.513"/><use xlink:href="#26" y="8.684"/><use xlink:href="#27" y="10.855"/><use xlink:href="#26" y="13.026"/><use xlink:href="#31" y="15.197"/><use xlink:href="#32" y="17.368"/><use xlink:href="#33" y="19.539"/><use xlink:href="#34" y="21.71"/></svg><svg x="8880"><use xlink:href="#a"/><use xlink:href="#b" x="19.996" y="23.856"/><use xlink:href="#14"/><use xlink:href="#15" y="2.171"/><use xlink:href="#16" y="4.342"/><use xlink:href="#25" y="6.513"/><use xlink:href="#26" y="8.684"/><use xlink:href="#27" y="10.855"/><use xlink:href="#26" y="13.026"/><use xlink:href="#31" y="15.197"/><use xlink:href="#32" y="17.368"/><use xlink:href="#33" y="19.539"/><use xlink:href="#34" y="21.71"/><use xlink:href="#1" y="23.881"/></svg><svg x="8960"><use xlink:href="#a"/><use xlink:href="#b" x="45.996" y="23.856"/><use xlink:href="#14"/><use xlink:href="#15" y="2.171"/><use xlink:href="#16" y="4.342"/><use xlink:href="#25" y="6.513"/><use xlink:href="#26" y="8.684"/><use xlink:href="#27" y="10.855"/><use xlink:href="#26" y="13.026"/><use xlink:href="#31" y="15.197"/><use xlink:href="#32" y="17.368"/><use xlink:href="#33" y="19.539"/><use xlink:href="#34" y="21.71"/><use xlink:href="#32" y="23.881"/></svg><svg x="9040"><use xlink:href="#a"/><use xlink:href="#b" x="44.996" y="23.856"/><use xlink:href="#14"/><use xlink:href="#15" y="2.171"/><use xlink:href="#16" y="4.342"/><use xlink:href="#25" y="6.513"/><use xlink:href="#26" y="8.684"/><use xlink:href="#27" y="10.855"/><use xlink:href="#26" y="13.026"/><use xlink:href="#31" y="15.197"/><use xlink:href="#32" y="17.368"/><use xlink:href="#33" y="19.539"/><use xlink:href="#34" y="21.71"/><use xlink:href="#30" y="23.881"/></svg><svg x="9120"><use xlink:href="#a"/><use xlink:href="#b" x="45.996" y="23.856"/><use xlink:href="#14"/><use xlink:href="#15" y="2.171"/><use xlink:href="#16" y="4.342"/><use xlink:href="#25" y="6.513"/><use xlink:href="#26" y="8.684"/><use xlink:href="#27" y="10.855"/><use xlink:href="#26" y="13.026"/><use xlink:href="#31" y="15.197"/><use xlink:href="#32" y="17.368"/><use xlink:href="#33" y="19.539"/><use xlink:href="#34" y="21.71"/><use xlink:href="#35" y="23.881"/></svg><svg x="9200"><use xlink:href="#a"/><use xlink:href="#b" x="-.004" y="26.027"/><use xlink:href="#14"/><use xlink:href="#15" y="2.171"/><use xlink:href="#16" y="4.342"/><use xlink:href="#25" y="6.513"/><use xlink:href="#26" y="8.684"/><use xlink:href="#27" y="10.855"/><use xlink:href="#26" y="13.026"/><use xlink:href="#31" y="15.197"/><use xlink:href="#32" y="17.368"/><use xlink:href="#33" y="19.539"/><use xlink:href="#34" y="21.71"/><use xlink:href="#35" y="23.881"/></svg><svg x="9280"><use xlink:href="#a"/><use xlink:href="#b" x="-.004" y="30.369"/><use xlink:href="#14"/><use xlink:href="#15" y="2.171"/><use xlink:href="#16" y="4.342"/><use xlink:href="#25" y="6.513"/><use xlink:href="#26" y="8.684"/><use xlink:href="#27" y="10.855"/><use xlink:href="#26" y="13.026"/><use xlink:href="#31" y="15.197"/><use xlink:href="#32" y="17.368"/><use xlink:href="#33" y="19.539"/><use xlink:href="#34" y="21.71"/><use xlink:href="#35" y="23.881"/><use xlink:href="#33" y="26.052"/><use xlink:href="#36" y="28.223"/></svg><svg x="9360"><use xlink:href="#a"/><use xlink:href="#b" x="-.004" y="30.369"/><use xlink:href="#14"/><use xlink:href="#15" y="2.171"/><use xlink:href="#16" y="4.342"/><use xlink:href="#25" y="6.513"/><use xlink:href="#26" y="8.684"/><use xlink:href="#27" y="10.855"/><use xlink:href="#26" y="13.026"/><use xlink:href="#31" y="15.197"/><use xlink:href="#32" y="17.368"/><use xlink:href="#33" y="19.539"/><use xlink:href="#34" y="21.71"/><use xlink:href="#35" y="23.881"/><use xlink:href="#33" y="26.052"/><use xlink:href="#36" y="28.223"/></svg><svg x="9440"><use xlink:href="#a"/><use xlink:href="#b" x="19.996" y="30.369"/><use xlink:href="#14"/><use xlink:href="#15" y="2.171"/><use xlink:href="#16" y="4.342"/><use xlink:href="#25" y="6.513"/><use xlink:href="#26" y="8.684"/><use xlink:href="#27" y="10.855"/><use xlink:href="#26" y="13.026"/><use xlink:href="#31" y="15.197"/><use xlink:href="#32" y="17.368"/><use xlink:href="#33" y="19.539"/><use xlink:href="#34" y="21.71"/><use xlink:href="#35" y="23.881"/><use xlink:href="#33" y="26.052"/><use xlink:href="#36" y="28.223"/><use xlink:href="#1" y="30.394"/></svg><svg x="9520"><use xlink:href="#a"/><use xlink:href="#b" x="-.004" y="32.54"/><use xlink:href="#14"/><use xlink:href="#15" y="2.171"/><use xlink:href="#16" y="4.342"/><use xlink:href="#25" y="6.513"/><use xlink:href="#26" y="8.684"/><use xlink:href="#27" y="10.855"/><use xlink:href="#26" y="13.026"/><use xlink:href="#31" y="15.197"/><use xlink:href="#32" y="17.368"/><use xlink:href="#33" y="19.539"/><use xlink:href="#34" y="21.71"/><use xlink:href="#35" y="23.881"/><use xlink:href="#33" y="26.052"/><use xlink:href="#36" y="28.223"/><text y="32.064" class="f">[eric@localhost</text><text x="16.032" y="32.064" class="f">~]$</text><text x="20.04" y="32.064" class="f">exit</text></svg></svg></g></g></svg></svg>