<svg xmlns="http://www.w3.org/2000/svg" xmlns:xlink="http://www.w3.org/1999/xlink" width="840" height="581.04"><rect width="840" height="581.04" rx="5" ry="5" class="a"/><svg y="0%" x="0%"><circle cx="20" cy="20" r="6" fill="#ff5f58"/><circle cx="40" cy="20" r="6" fill="#ffbd2e"/><circle cx="60" cy="20" r="6" fill="#18c132"/></svg><svg height="521.04" viewBox="0 0 80 52.104" width="800" x="15" xmlns="http://www.w3.org/2000/svg" xmlns:xlink="http://www.w3.org/1999/xlink" y="50"><style>@keyframes i{0%{transform:translateX(0)}.89%{transform:translateX(-80px)}.9%{transform:translateX(-160px)}10.1%{transform:translateX(-240px)}10.65%{transform:translateX(-320px)}11.64%{transform:translateX(-400px)}11.98%{transform:translateX(-480px)}13.19%{transform:translateX(-560px)}14.28%{transform:translateX(-640px)}14.7%{transform:translateX(-720px)}16.78%{transform:translateX(-800px)}19.51%{transform:translateX(-880px)}20.39%{transform:translateX(-960px)}20.86%{transform:translateX(-1040px)}22.47%{transform:translateX(-1120px)}24.49%{transform:translateX(-1200px)}25.34%{transform:translateX(-1280px)}26.14%{transform:translateX(-1360px)}26.77%{transform:translateX(-1440px)}27.64%{transform:translateX(-1520px)}28.79%{transform:translateX(-1600px)}30.29%{transform:translateX(-1680px)}30.96%{transform:translateX(-1760px)}32.81%{transform:translateX(-1840px)}33.51%{transform:translateX(-1920px)}34.07%{transform:translateX(-2000px)}36.03%{transform:translateX(-2080px)}36.22%{transform:translateX(-2160px)}36.28%{transform:translateX(-2320px)}43.04%{transform:translateX(-2400px)}43.9%{transform:translateX(-2480px)}45.1%{transform:translateX(-2560px)}46.08%{transform:translateX(-2640px)}47.91%{transform:translateX(-2720px)}48.94%{transform:translateX(-2800px)}49.32%{transform:translateX(-2880px)}49.93%{transform:translateX(-2960px)}54.22%{transform:translateX(-3040px)}54.8%{transform:translateX(-3120px)}55.17%{transform:translateX(-3200px)}55.67%{transform:translateX(-3280px)}56.31%{transform:translateX(-3360px)}56.82%{transform:translateX(-3440px)}57.45%{transform:translateX(-3520px)}58.1%{transform:translateX(-3600px)}59.02%{transform:translateX(-3680px)}64.38%{transform:translateX(-3760px)}64.56%{transform:translateX(-3840px)}64.62%{transform:translateX(-4000px)}71.89%{transform:translateX(-4080px)}72.63%{transform:translateX(-4160px)}73.72%{transform:translateX(-4240px)}74.14%{transform:translateX(-4320px)}75.62%{transform:translateX(-4400px)}76.65%{transform:translateX(-4480px)}77.1%{transform:translateX(-4560px)}77.42%{transform:translateX(-4640px)}78.83%{transform:translateX(-4720px)}79.71%{transform:translateX(-4800px)}80.06%{transform:translateX(-4880px)}80.7%{transform:translateX(-4960px)}81.87%{transform:translateX(-5040px)}82.49%{transform:translateX(-5120px)}83.18%{transform:translateX(-5200px)}83.9%{transform:translateX(-5280px)}85.19%{transform:translateX(-5360px)}88.66%{transform:translateX(-5440px)}88.85%{transform:translateX(-5520px)}88.91%{transform:translateX(-5680px)}to{transform:translateX(-5760px)}}.a{fill:#282d35}.f{fill:#b9c0cb;white-space:pre}</style><g font-family="Monaco,Consolas,Menlo,'Bitstream Vera Sans Mono','Powerline Symbols',monospace" font-size="1.67"><defs><symbol id="11"><text y="1.67" class="f">[eric@localhost</text><text x="16.032" y="1.67" class="f">~]$</text><text x="20.04" y="1.67" class="f">etcdctl</text><text x="28.056" y="1.67" class="f">put</text><text x="32.064" y="1.67" class="f">hello</text><text x="38.076" y="1.67" class="f">world</text></symbol><symbol id="1"><text y="1.67" class="f">[eric@localhost</text><text x="16.032" y="1.67" class="f">~]$</text></symbol><symbol id="3"><text y="1.67" class="f">[eric@localhost</text><text x="16.032" y="1.67" class="f">~]$</text><text x="20.04" y="1.67" class="f">et</text></symbol><symbol id="4"><text y="1.67" class="f">[eric@localhost</text><text x="16.032" y="1.67" class="f">~]$</text><text x="20.04" y="1.67" class="f">etc</text></symbol><symbol id="5"><text y="1.67" class="f">[eric@localhost</text><text x="16.032" y="1.67" class="f">~]$</text><text x="20.04" y="1.67" class="f">etcd</text></symbol><symbol id="6"><text y="1.67" class="f">[eric@localhost</text><text x="16.032" y="1.67" class="f">~]$</text><text x="20.04" y="1.67" class="f">etcdc</text></symbol><symbol id="7"><text y="1.67" class="f">[eric@localhost</text><text x="16.032" y="1.67" class="f">~]$</text><text x="20.04" y="1.67" class="f">etcdct</text></symbol><symbol id="8"><text y="1.67" class="f">[eric@localhost</text><text x="16.032" y="1.67" class="f">~]$</text><text x="20.04" y="1.67" class="f">etcdctl</text></symbol><symbol id="9"><text y="1.67" class="f">[eric@localhost</text><text x="16.032" y="1.67" class="f">~]$</text><text x="20.04" y="1.67" class="f">etcdctl</text><text x="28.056" y="1.67" class="f">put</text></symbol><symbol id="10"><text y="1.67" class="f">[eric@localhost</text><text x="16.032" y="1.67" class="f">~]$</text><text x="20.04" y="1.67" class="f">etcdctl</text><text x="28.056" y="1.67" class="f">put</text><text x="32.064" y="1.67" class="f">hello</text></symbol><symbol id="2"><text y="1.67" class="f">[eric@localhost</text><text x="16.032" y="1.67" class="f">~]$</text><text x="20.04" y="1.67" class="f">e</text></symbol><symbol id="12"><text y="1.67" class="f">OK</text></symbol><symbol id="13"><text y="1.67" class="f">[eric@localhost</text><text x="16.032" y="1.67" class="f">~]$</text><text x="20.04" y="1.67" class="f">etcdctl</text><text x="28.056" y="1.67" class="f">get</text></symbol><symbol id="14"><text y="1.67" class="f">[eric@localhost</text><text x="16.032" y="1.67" class="f">~]$</text><text x="20.04" y="1.67" class="f">etcdctl</text><text x="28.056" y="1.67" class="f">get</text><text x="32.064" y="1.67" class="f">hello</text></symbol><symbol id="15"><text y="1.67" class="f">hello</text></symbol><symbol id="16"><text y="1.67" class="f">world</text></symbol><symbol id="17"><text y="1.67" class="f">[eric@localhost</text><text x="16.032" y="1.67" class="f">~]$</text><text x="20.04" y="1.67" class="f">etcdctl</text><text x="28.056" y="1.67" class="f">del</text></symbol><symbol id="18"><text y="1.67" class="f">[eric@localhost</text><text x="16.032" y="1.67" class="f">~]$</text><text x="20.04" y="1.67" class="f">etcdctl</text><text x="28.056" y="1.67" class="f">del</text><text x="32.064" y="1.67" class="f">hello</text></symbol><symbol id="19"><text y="1.67" class="f">1</text></symbol><symbol id="a"><path fill="transparent" d="M0 0h80v24H0z"/></symbol><symbol id="b"><path fill="#6f7683" d="M0 0h1.102v2.171H0z"/></symbol></defs><path class="a" d="M0 0h80v52.104H0z"/><g style="animation-duration:22.794083s;animation-iteration-count:infinite;animation-name:i;animation-timing-function:steps(1,end)"><svg width="5840"><svg><use xlink:href="#a"/><use xlink:href="#b" x="-.004"/></svg><svg x="80"><use xlink:href="#a"/><use xlink:href="#b" x="-.004"/></svg><svg x="160"><use xlink:href="#a"/><use xlink:href="#b" x="19.996"/><use xlink:href="#1"/></svg><svg x="240"><use xlink:href="#a"/><use xlink:href="#b" x="20.996"/><use xlink:href="#2"/></svg><svg x="320"><use xlink:href="#a"/><use xlink:href="#b" x="21.996"/><use xlink:href="#3"/></svg><svg x="400"><use xlink:href="#a"/><use xlink:href="#b" x="22.996"/><use xlink:href="#4"/></svg><svg x="480"><use xlink:href="#a"/><use xlink:href="#b" x="23.996"/><use xlink:href="#5"/></svg><svg x="560"><use xlink:href="#a"/><use xlink:href="#b" x="24.996"/><use xlink:href="#6"/></svg><svg x="640"><use xlink:href="#a"/><use xlink:href="#b" x="25.996"/><use xlink:href="#7"/></svg><svg x="720"><use xlink:href="#a"/><use xlink:href="#b" x="26.996"/><use xlink:href="#8"/></svg><svg x="800"><use xlink:href="#a"/><use xlink:href="#b" x="27.996"/><use xlink:href="#8"/></svg><svg x="880"><use xlink:href="#a"/><use xlink:href="#b" x="28.996"/><text y="1.67" class="f">[eric@localhost</text><text x="16.032" y="1.67" class="f">~]$</text><text x="20.04" y="1.67" class="f">etcdctl</text><text x="28.056" y="1.67" class="f">p</text></svg><svg x="960"><use xlink:href="#a"/><use xlink:href="#b" x="29.996"/><text y="1.67" class="f">[eric@localhost</text><text x="16.032" y="1.67" class="f">~]$</text><text x="20.04" y="1.67" class="f">etcdctl</text><text x="28.056" y="1.67" class="f">pu</text></svg><svg x="1040"><use xlink:href="#a"/><use xlink:href="#b" x="30.996"/><use xlink:href="#9"/></svg><svg x="1120"><use xlink:href="#a"/><use xlink:href="#b" x="31.996"/><use xlink:href="#9"/></svg><svg x="1200"><use xlink:href="#a"/><use xlink:href="#b" x="32.996"/><text y="1.67" class="f">[eric@localhost</text><text x="16.032" y="1.67" class="f">~]$</text><text x="20.04" y="1.67" class="f">etcdctl</text><text x="28.056" y="1.67" class="f">put</text><text x="32.064" y="1.67" class="f">h</text></svg><svg x="1280"><use xlink:href="#a"/><use xlink:href="#b" x="33.996"/><text y="1.67" class="f">[eric@localhost</text><text x="16.032" y="1.67" class="f">~]$</text><text x="20.04" y="1.67" class="f">etcdctl</text><text x="28.056" y="1.67" class="f">put</text><text x="32.064" y="1.67" class="f">he</text></svg><svg x="1360"><use xlink:href="#a"/><use xlink:href="#b" x="34.996"/><text y="1.67" class="f">[eric@localhost</text><text x="16.032" y="1.67" class="f">~]$</text><text x="20.04" y="1.67" class="f">etcdctl</text><text x="28.056" y="1.67" class="f">put</text><text x="32.064" y="1.67" class="f">hel</text></svg><svg x="1440"><use xlink:href="#a"/><use xlink:href="#b" x="35.996"/><text y="1.67" class="f">[eric@localhost</text><text x="16.032" y="1.67" class="f">~]$</text><text x="20.04" y="1.67" class="f">etcdctl</text><text x="28.056" y="1.67" class="f">put</text><text x="32.064" y="1.67" class="f">hell</text></svg><svg x="1520"><use xlink:href="#a"/><use xlink:href="#b" x="36.996"/><use xlink:href="#10"/></svg><svg x="1600"><use xlink:href="#a"/><use xlink:href="#b" x="37.996"/><use xlink:href="#10"/></svg><svg x="1680"><use xlink:href="#a"/><use xlink:href="#b" x="38.996"/><text y="1.67" class="f">[eric@localhost</text><text x="16.032" y="1.67" class="f">~]$</text><text x="20.04" y="1.67" class="f">etcdctl</text><text x="28.056" y="1.67" class="f">put</text><text x="32.064" y="1.67" class="f">hello</text><text x="38.076" y="1.67" class="f">w</text></svg><svg x="1760"><use xlink:href="#a"/><use xlink:href="#b" x="39.996"/><text y="1.67" class="f">[eric@localhost</text><text x="16.032" y="1.67" class="f">~]$</text><text x="20.04" y="1.67" class="f">etcdctl</text><text x="28.056" y="1.67" class="f">put</text><text x="32.064" y="1.67" class="f">hello</text><text x="38.076" y="1.67" class="f">wo</text></svg><svg x="1840"><use xlink:href="#a"/><use xlink:href="#b" x="40.996"/><text y="1.67" class="f">[eric@localhost</text><text x="16.032" y="1.67" class="f">~]$</text><text x="20.04" y="1.67" class="f">etcdctl</text><text x="28.056" y="1.67" class="f">put</text><text x="32.064" y="1.67" class="f">hello</text><text x="38.076" y="1.67" class="f">wor</text></svg><svg x="1920"><use xlink:href="#a"/><use xlink:href="#b" x="41.996"/><text y="1.67" class="f">[eric@localhost</text><text x="16.032" y="1.67" class="f">~]$</text><text x="20.04" y="1.67" class="f">etcdctl</text><text x="28.056" y="1.67" class="f">put</text><text x="32.064" y="1.67" class="f">hello</text><text x="38.076" y="1.67" class="f">worl</text></svg><svg x="2000"><use xlink:href="#a"/><use xlink:href="#b" x="42.996"/><use xlink:href="#11"/></svg><svg x="2080"><use xlink:href="#a"/><use xlink:href="#b" x="-.004" y="2.146"/><use xlink:href="#11"/></svg><svg x="2160"><use xlink:href="#a"/><use xlink:href="#b" x="-.004" y="4.317"/><use xlink:href="#11"/><use xlink:href="#12" y="2.171"/></svg><svg x="2240"><use xlink:href="#a"/><use xlink:href="#b" x="-.004" y="4.317"/><use xlink:href="#11"/><use xlink:href="#12" y="2.171"/></svg><svg x="2320"><use xlink:href="#a"/><use xlink:href="#b" x="19.996" y="4.317"/><use xlink:href="#11"/><use xlink:href="#12" y="2.171"/><use xlink:href="#1" y="4.342"/></svg><svg x="2400"><use xlink:href="#a"/><use xlink:href="#b" x="20.996" y="4.317"/><use xlink:href="#11"/><use xlink:href="#12" y="2.171"/><use xlink:href="#2" y="4.342"/></svg><svg x="2480"><use xlink:href="#a"/><use xlink:href="#b" x="21.996" y="4.317"/><use xlink:href="#11"/><use xlink:href="#12" y="2.171"/><use xlink:href="#3" y="4.342"/></svg><svg x="2560"><use xlink:href="#a"/><use xlink:href="#b" x="22.996" y="4.317"/><use xlink:href="#11"/><use xlink:href="#12" y="2.171"/><use xlink:href="#4" y="4.342"/></svg><svg x="2640"><use xlink:href="#a"/><use xlink:href="#b" x="23.996" y="4.317"/><use xlink:href="#11"/><use xlink:href="#12" y="2.171"/><use xlink:href="#5" y="4.342"/></svg><svg x="2720"><use xlink:href="#a"/><use xlink:href="#b" x="24.996" y="4.317"/><use xlink:href="#11"/><use xlink:href="#12" y="2.171"/><use xlink:href="#6" y="4.342"/></svg><svg x="2800"><use xlink:href="#a"/><use xlink:href="#b" x="25.996" y="4.317"/><use xlink:href="#11"/><use xlink:href="#12" y="2.171"/><use xlink:href="#7" y="4.342"/></svg><svg x="2880"><use xlink:href="#a"/><use xlink:href="#b" x="26.996" y="4.317"/><use xlink:href="#11"/><use xlink:href="#12" y="2.171"/><use xlink:href="#8" y="4.342"/></svg><svg x="2960"><use xlink:href="#a"/><use xlink:href="#b" x="27.996" y="4.317"/><use xlink:href="#11"/><use xlink:href="#12" y="2.171"/><use xlink:href="#8" y="4.342"/></svg><svg x="3040"><use xlink:href="#a"/><use xlink:href="#b" x="28.996" y="4.317"/><use xlink:href="#11"/><use xlink:href="#12" y="2.171"/><text y="6.012" class="f">[eric@localhost</text><text x="16.032" y="6.012" class="f">~]$</text><text x="20.04" y="6.012" class="f">etcdctl</text><text x="28.056" y="6.012" class="f">g</text></svg><svg x="3120"><use xlink:href="#a"/><use xlink:href="#b" x="29.996" y="4.317"/><use xlink:href="#11"/><use xlink:href="#12" y="2.171"/><text y="6.012" class="f">[eric@localhost</text><text x="16.032" y="6.012" class="f">~]$</text><text x="20.04" y="6.012" class="f">etcdctl</text><text x="28.056" y="6.012" class="f">ge</text></svg><svg x="3200"><use xlink:href="#a"/><use xlink:href="#b" x="30.996" y="4.317"/><use xlink:href="#11"/><use xlink:href="#12" y="2.171"/><use xlink:href="#13" y="4.342"/></svg><svg x="3280"><use xlink:href="#a"/><use xlink:href="#b" x="31.996" y="4.317"/><use xlink:href="#11"/><use xlink:href="#12" y="2.171"/><use xlink:href="#13" y="4.342"/></svg><svg x="3360"><use xlink:href="#a"/><use xlink:href="#b" x="32.996" y="4.317"/><use xlink:href="#11"/><use xlink:href="#12" y="2.171"/><text y="6.012" class="f">[eric@localhost</text><text x="16.032" y="6.012" class="f">~]$</text><text x="20.04" y="6.012" class="f">etcdctl</text><text x="28.056" y="6.012" class="f">get</text><text x="32.064" y="6.012" class="f">h</text></svg><svg x="3440"><use xlink:href="#a"/><use xlink:href="#b" x="33.996" y="4.317"/><use xlink:href="#11"/><use xlink:href="#12" y="2.171"/><text y="6.012" class="f">[eric@localhost</text><text x="16.032" y="6.012" class="f">~]$</text><text x="20.04" y="6.012" class="f">etcdctl</text><text x="28.056" y="6.012" class="f">get</text><text x="32.064" y="6.012" class="f">he</text></svg><svg x="3520"><use xlink:href="#a"/><use xlink:href="#b" x="34.996" y="4.317"/><use xlink:href="#11"/><use xlink:href="#12" y="2.171"/><text y="6.012" class="f">[eric@localhost</text><text x="16.032" y="6.012" class="f">~]$</text><text x="20.04" y="6.012" class="f">etcdctl</text><text x="28.056" y="6.012" class="f">get</text><text x="32.064" y="6.012" class="f">hel</text></svg><svg x="3600"><use xlink:href="#a"/><use xlink:href="#b" x="35.996" y="4.317"/><use xlink:href="#11"/><use xlink:href="#12" y="2.171"/><text y="6.012" class="f">[eric@localhost</text><text x="16.032" y="6.012" class="f">~]$</text><text x="20.04" y="6.012" class="f">etcdctl</text><text x="28.056" y="6.012" class="f">get</text><text x="32.064" y="6.012" class="f">hell</text></svg><svg x="3680"><use xlink:href="#a"/><use xlink:href="#b" x="36.996" y="4.317"/><use xlink:href="#11"/><use xlink:href="#12" y="2.171"/><use xlink:href="#14" y="4.342"/></svg><svg x="3760"><use xlink:href="#a"/><use xlink:href="#b" x="-.004" y="6.488"/><use xlink:href="#11"/><use xlink:href="#12" y="2.171"/><use xlink:href="#14" y="4.342"/></svg><svg x="3840"><use xlink:href="#a"/><use xlink:href="#b" x="-.004" y="10.83"/><use xlink:href="#11"/><use xlink:href="#12" y="2.171"/><use xlink:href="#14" y="4.342"/><use xlink:href="#15" y="6.513"/><use xlink:href="#16" y="8.684"/></svg><svg x="3920"><use xlink:href="#a"/><use xlink:href="#b" x="-.004" y="10.83"/><use xlink:href="#11"/><use xlink:href="#12" y="2.171"/><use xlink:href="#14" y="4.342"/><use xlink:href="#15" y="6.513"/><use xlink:href="#16" y="8.684"/></svg><svg x="4000"><use xlink:href="#a"/><use xlink:href="#b" x="19.996" y="10.83"/><use xlink:href="#11"/><use xlink:href="#12" y="2.171"/><use xlink:href="#14" y="4.342"/><use xlink:href="#15" y="6.513"/><use xlink:href="#16" y="8.684"/><use xlink:href="#1" y="10.855"/></svg><svg x="4080"><use xlink:href="#a"/><use xlink:href="#b" x="20.996" y="10.83"/><use xlink:href="#11"/><use xlink:href="#12" y="2.171"/><use xlink:href="#14" y="4.342"/><use xlink:href="#15" y="6.513"/><use xlink:href="#16" y="8.684"/><use xlink:href="#2" y="10.855"/></svg><svg x="4160"><use xlink:href="#a"/><use xlink:href="#b" x="21.996" y="10.83"/><use xlink:href="#11"/><use xlink:href="#12" y="2.171"/><use xlink:href="#14" y="4.342"/><use xlink:href="#15" y="6.513"/><use xlink:href="#16" y="8.684"/><use xlink:href="#3" y="10.855"/></svg><svg x="4240"><use xlink:href="#a"/><use xlink:href="#b" x="22.996" y="10.83"/><use xlink:href="#11"/><use xlink:href="#12" y="2.171"/><use xlink:href="#14" y="4.342"/><use xlink:href="#15" y="6.513"/><use xlink:href="#16" y="8.684"/><use xlink:href="#4" y="10.855"/></svg><svg x="4320"><use xlink:href="#a"/><use xlink:href="#b" x="23.996" y="10.83"/><use xlink:href="#11"/><use xlink:href="#12" y="2.171"/><use xlink:href="#14" y="4.342"/><use xlink:href="#15" y="6.513"/><use xlink:href="#16" y="8.684"/><use xlink:href="#5" y="10.855"/></svg><svg x="4400"><use xlink:href="#a"/><use xlink:href="#b" x="24.996" y="10.83"/><use xlink:href="#11"/><use xlink:href="#12" y="2.171"/><use xlink:href="#14" y="4.342"/><use xlink:href="#15" y="6.513"/><use xlink:href="#16" y="8.684"/><use xlink:href="#6" y="10.855"/></svg><svg x="4480"><use xlink:href="#a"/><use xlink:href="#b" x="25.996" y="10.83"/><use xlink:href="#11"/><use xlink:href="#12" y="2.171"/><use xlink:href="#14" y="4.342"/><use xlink:href="#15" y="6.513"/><use xlink:href="#16" y="8.684"/><use xlink:href="#7" y="10.855"/></svg><svg x="4560"><use xlink:href="#a"/><use xlink:href="#b" x="26.996" y="10.83"/><use xlink:href="#11"/><use xlink:href="#12" y="2.171"/><use xlink:href="#14" y="4.342"/><use xlink:href="#15" y="6.513"/><use xlink:href="#16" y="8.684"/><use xlink:href="#8" y="10.855"/></svg><svg x="4640"><use xlink:href="#a"/><use xlink:href="#b" x="27.996" y="10.83"/><use xlink:href="#11"/><use xlink:href="#12" y="2.171"/><use xlink:href="#14" y="4.342"/><use xlink:href="#15" y="6.513"/><use xlink:href="#16" y="8.684"/><use xlink:href="#8" y="10.855"/></svg><svg x="4720"><use xlink:href="#a"/><use xlink:href="#b" x="28.996" y="10.83"/><use xlink:href="#11"/><use xlink:href="#12" y="2.171"/><use xlink:href="#14" y="4.342"/><use xlink:href="#15" y="6.513"/><use xlink:href="#16" y="8.684"/><text y="12.525" class="f">[eric@localhost</text><text x="16.032" y="12.525" class="f">~]$</text><text x="20.04" y="12.525" class="f">etcdctl</text><text x="28.056" y="12.525" class="f">d</text></svg><svg x="4800"><use xlink:href="#a"/><use xlink:href="#b" x="29.996" y="10.83"/><use xlink:href="#11"/><use xlink:href="#12" y="2.171"/><use xlink:href="#14" y="4.342"/><use xlink:href="#15" y="6.513"/><use xlink:href="#16" y="8.684"/><text y="12.525" class="f">[eric@localhost</text><text x="16.032" y="12.525" class="f">~]$</text><text x="20.04" y="12.525" class="f">etcdctl</text><text x="28.056" y="12.525" class="f">de</text></svg><svg x="4880"><use xlink:href="#a"/><use xlink:href="#b" x="30.996" y="10.83"/><use xlink:href="#11"/><use xlink:href="#12" y="2.171"/><use xlink:href="#14" y="4.342"/><use xlink:href="#15" y="6.513"/><use xlink:href="#16" y="8.684"/><use xlink:href="#17" y="10.855"/></svg><svg x="4960"><use xlink:href="#a"/><use xlink:href="#b" x="31.996" y="10.83"/><use xlink:href="#11"/><use xlink:href="#12" y="2.171"/><use xlink:href="#14" y="4.342"/><use xlink:href="#15" y="6.513"/><use xlink:href="#16" y="8.684"/><use xlink:href="#17" y="10.855"/></svg><svg x="5040"><use xlink:href="#a"/><use xlink:href="#b" x="32.996" y="10.83"/><use xlink:href="#11"/><use xlink:href="#12" y="2.171"/><use xlink:href="#14" y="4.342"/><use xlink:href="#15" y="6.513"/><use xlink:href="#16" y="8.684"/><text y="12.525" class="f">[eric@localhost</text><text x="16.032" y="12.525" class="f">~]$</text><text x="20.04" y="12.525" class="f">etcdctl</text><text x="28.056" y="12.525" class="f">del</text><text x="32.064" y="12.525" class="f">h</text></svg><svg x="5120"><use xlink:href="#a"/><use xlink:href="#b" x="33.996" y="10.83"/><use xlink:href="#11"/><use xlink:href="#12" y="2.171"/><use xlink:href="#14" y="4.342"/><use xlink:href="#15" y="6.513"/><use xlink:href="#16" y="8.684"/><text y="12.525" class="f">[eric@localhost</text><text x="16.032" y="12.525" class="f">~]$</text><text x="20.04" y="12.525" class="f">etcdctl</text><text x="28.056" y="12.525" class="f">del</text><text x="32.064" y="12.525" class="f">he</text></svg><svg x="5200"><use xlink:href="#a"/><use xlink:href="#b" x="34.996" y="10.83"/><use xlink:href="#11"/><use xlink:href="#12" y="2.171"/><use xlink:href="#14" y="4.342"/><use xlink:href="#15" y="6.513"/><use xlink:href="#16" y="8.684"/><text y="12.525" class="f">[eric@localhost</text><text x="16.032" y="12.525" class="f">~]$</text><text x="20.04" y="12.525" class="f">etcdctl</text><text x="28.056" y="12.525" class="f">del</text><text x="32.064" y="12.525" class="f">hel</text></svg><svg x="5280"><use xlink:href="#a"/><use xlink:href="#b" x="35.996" y="10.83"/><use xlink:href="#11"/><use xlink:href="#12" y="2.171"/><use xlink:href="#14" y="4.342"/><use xlink:href="#15" y="6.513"/><use xlink:href="#16" y="8.684"/><text y="12.525" class="f">[eric@localhost</text><text x="16.032" y="12.525" class="f">~]$</text><text x="20.04" y="12.525" class="f">etcdctl</text><text x="28.056" y="12.525" class="f">del</text><text x="32.064" y="12.525" class="f">hell</text></svg><svg x="5360"><use xlink:href="#a"/><use xlink:href="#b" x="36.996" y="10.83"/><use xlink:href="#11"/><use xlink:href="#12" y="2.171"/><use xlink:href="#14" y="4.342"/><use xlink:href="#15" y="6.513"/><use xlink:href="#16" y="8.684"/><use xlink:href="#18" y="10.855"/></svg><svg x="5440"><use xlink:href="#a"/><use xlink:href="#b" x="-.004" y="13.001"/><use xlink:href="#11"/><use xlink:href="#12" y="2.171"/><use xlink:href="#14" y="4.342"/><use xlink:href="#15" y="6.513"/><use xlink:href="#16" y="8.684"/><use xlink:href="#18" y="10.855"/></svg><svg x="5520"><use xlink:href="#a"/><use xlink:href="#b" x="-.004" y="15.172"/><use xlink:href="#11"/><use xlink:href="#12" y="2.171"/><use xlink:href="#14" y="4.342"/><use xlink:href="#15" y="6.513"/><use xlink:href="#16" y="8.684"/><use xlink:href="#18" y="10.855"/><use xlink:href="#19" y="13.026"/></svg><svg x="5600"><use xlink:href="#a"/><use xlink:href="#b" x="-.004" y="15.172"/><use xlink:href="#11"/><use xlink:href="#12" y="2.171"/><use xlink:href="#14" y="4.342"/><use xlink:href="#15" y="6.513"/><use xlink:href="#16" y="8.684"/><use xlink:href="#18" y="10.855"/><use xlink:href="#19" y="13.026"/></svg><svg x="5680"><use xlink:href="#a"/><use xlink:href="#b" x="19.996" y="15.172"/><use xlink:href="#11"/><use xlink:href="#12" y="2.171"/><use xlink:href="#14" y="4.342"/><use xlink:href="#15" y="6.513"/><use xlink:href="#16" y="8.684"/><use xlink:href="#18" y="10.855"/><use xlink:href="#19" y="13.026"/><use xlink:href="#1" y="15.197"/></svg><svg x="5760"><use xlink:href="#a"/><use xlink:href="#b" x="-.004" y="17.343"/><use xlink:href="#11"/><use xlink:href="#12" y="2.171"/><use xlink:href="#14" y="4.342"/><use xlink:href="#15" y="6.513"/><use xlink:href="#16" y="8.684"/><use xlink:href="#18" y="10.855"/><use xlink:href="#19" y="13.026"/><text y="16.867" class="f">[eric@localhost</text><text x="16.032" y="16.867" class="f">~]$</text><text x="20.04" y="16.867" class="f">exit</text></svg></svg></g></g></svg></svg>