<svg xmlns="http://www.w3.org/2000/svg" xmlns:xlink="http://www.w3.org/1999/xlink" width="840" height="581.04"><rect width="840" height="581.04" rx="5" ry="5" class="a"/><svg y="0%" x="0%"><circle cx="20" cy="20" r="6" fill="#ff5f58"/><circle cx="40" cy="20" r="6" fill="#ffbd2e"/><circle cx="60" cy="20" r="6" fill="#18c132"/></svg><svg height="521.04" viewBox="0 0 80 52.104" width="800" x="15" xmlns="http://www.w3.org/2000/svg" xmlns:xlink="http://www.w3.org/1999/xlink" y="50"><style>@keyframes i{0%{transform:translateX(0)}.29%{transform:translateX(-160px)}3.56%{transform:translateX(-240px)}3.83%{transform:translateX(-320px)}4.47%{transform:translateX(-400px)}4.68%{transform:translateX(-480px)}5.2%{transform:translateX(-560px)}5.82%{transform:translateX(-640px)}5.99%{transform:translateX(-720px)}6.19%{transform:translateX(-800px)}6.72%{transform:translateX(-880px)}6.89%{transform:translateX(-960px)}7.14%{transform:translateX(-1040px)}7.39%{transform:translateX(-1120px)}7.6%{transform:translateX(-1200px)}7.82%{transform:translateX(-1280px)}8.04%{transform:translateX(-1360px)}8.47%{transform:translateX(-1440px)}8.68%{transform:translateX(-1520px)}8.96%{transform:translateX(-1600px)}9.27%{transform:translateX(-1680px)}9.49%{transform:translateX(-1760px)}9.87%{transform:translateX(-1840px)}10.24%{transform:translateX(-1920px)}11.43%{transform:translateX(-2000px)}11.57%{transform:translateX(-2080px)}11.59%{transform:translateX(-2160px)}13.86%{transform:translateX(-2240px)}14.14%{transform:translateX(-2320px)}14.8%{transform:translateX(-2400px)}14.99%{transform:translateX(-2480px)}15.51%{transform:translateX(-2560px)}16.13%{transform:translateX(-2640px)}16.38%{transform:translateX(-2720px)}16.8%{transform:translateX(-2800px)}17.38%{transform:translateX(-2880px)}17.81%{transform:translateX(-2960px)}18%{transform:translateX(-3040px)}18.27%{transform:translateX(-3120px)}18.66%{transform:translateX(-3200px)}18.93%{transform:translateX(-3280px)}19.27%{transform:translateX(-3360px)}19.42%{transform:translateX(-3440px)}19.61%{transform:translateX(-3520px)}19.96%{transform:translateX(-3600px)}20.18%{transform:translateX(-3680px)}20.58%{transform:translateX(-3760px)}21.05%{transform:translateX(-3840px)}21.41%{transform:translateX(-3920px)}21.84%{transform:translateX(-4000px)}21.94%{transform:translateX(-4080px)}22.21%{transform:translateX(-4160px)}22.4%{transform:translateX(-4240px)}22.54%{transform:translateX(-4320px)}22.89%{transform:translateX(-4400px)}30.19%{transform:translateX(-4480px)}31.93%{transform:translateX(-4560px)}32.06%{transform:translateX(-4640px)}32.08%{transform:translateX(-4720px)}35.99%{transform:translateX(-4800px)}36.22%{transform:translateX(-4880px)}36.83%{transform:translateX(-4960px)}36.99%{transform:translateX(-5040px)}37.47%{transform:translateX(-5120px)}38.06%{transform:translateX(-5200px)}38.19%{transform:translateX(-5280px)}38.34%{transform:translateX(-5360px)}38.56%{transform:translateX(-5440px)}38.81%{transform:translateX(-5520px)}38.94%{transform:translateX(-5600px)}39.59%{transform:translateX(-5680px)}39.82%{transform:translateX(-5760px)}39.94%{transform:translateX(-5840px)}40.95%{transform:translateX(-5920px)}41.2%{transform:translateX(-6000px)}41.55%{transform:translateX(-6080px)}43.56%{transform:translateX(-6160px)}86.6%{transform:translateX(-6240px)}96.28%{transform:translateX(-6320px)}96.29%{transform:translateX(-6400px)}96.3%{transform:translateX(-6560px)}to{transform:translateX(-6640px)}}.a{fill:#282d35}.f{fill:#b9c0cb;white-space:pre}</style><g font-family="Monaco,Consolas,Menlo,'Bitstream Vera Sans Mono','Powerline Symbols',monospace" font-size="1.67"><defs><symbol id="13"><text y="1.67" class="f">[eric@localhost</text><text x="16.032" y="1.67" class="f">~]$</text><text x="20.04" y="1.67" class="f">etcdctl</text><text x="28.056" y="1.67" class="f">put</text></symbol><symbol id="1"><text y="1.67" class="f">[eric@localhost</text><text x="16.032" y="1.67" class="f">~]$</text></symbol><symbol id="3"><text y="1.67" class="f">[eric@localhost</text><text x="16.032" y="1.67" class="f">~]$</text><text x="20.04" y="1.67" class="f">et</text></symbol><symbol id="4"><text y="1.67" class="f">[eric@localhost</text><text x="16.032" y="1.67" class="f">~]$</text><text x="20.04" y="1.67" class="f">etc</text></symbol><symbol id="5"><text y="1.67" class="f">[eric@localhost</text><text x="16.032" y="1.67" class="f">~]$</text><text x="20.04" y="1.67" class="f">etcd</text></symbol><symbol id="6"><text y="1.67" class="f">[eric@localhost</text><text x="16.032" y="1.67" class="f">~]$</text><text x="20.04" y="1.67" class="f">etcdc</text></symbol><symbol id="7"><text y="1.67" class="f">[eric@localhost</text><text x="16.032" y="1.67" class="f">~]$</text><text x="20.04" y="1.67" class="f">etcdct</text></symbol><symbol id="8"><text y="1.67" class="f">[eric@localhost</text><text x="16.032" y="1.67" class="f">~]$</text><text x="20.04" y="1.67" class="f">etcdctl</text></symbol><symbol id="9"><text y="1.67" class="f">[eric@localhost</text><text x="16.032" y="1.67" class="f">~]$</text><text x="20.04" y="1.67" class="f">etcdctl</text><text x="28.056" y="1.67" class="f">lease</text></symbol><symbol id="10"><text y="1.67" class="f">[eric@localhost</text><text x="16.032" y="1.67" class="f">~]$</text><text x="20.04" y="1.67" class="f">etcdctl</text><text x="28.056" y="1.67" class="f">lease</text><text x="34.068" y="1.67" class="f">grant</text></symbol><symbol id="11"><text y="1.67" class="f">[eric@localhost</text><text x="16.032" y="1.67" class="f">~]$</text><text x="20.04" y="1.67" class="f">etcdctl</text><text x="28.056" y="1.67" class="f">lease</text><text x="34.068" y="1.67" class="f">grant</text><text x="40.08" y="1.67" class="f">30</text></symbol><symbol id="12"><text y="1.67" class="f">lease</text><text x="6.012" y="1.67" class="f">694d6dff20422e09</text><text x="23.046" y="1.67" class="f">granted</text><text x="31.062" y="1.67" class="f">with</text><text x="36.072" y="1.67" class="f">TTL(30s)</text></symbol><symbol id="2"><text y="1.67" class="f">[eric@localhost</text><text x="16.032" y="1.67" class="f">~]$</text><text x="20.04" y="1.67" class="f">e</text></symbol><symbol id="14"><text y="1.67" class="f">[eric@localhost</text><text x="16.032" y="1.67" class="f">~]$</text><text x="20.04" y="1.67" class="f">etcdctl</text><text x="28.056" y="1.67" class="f">put</text><text x="32.064" y="1.67" class="f">foo</text></symbol><symbol id="15"><text y="1.67" class="f">[eric@localhost</text><text x="16.032" y="1.67" class="f">~]$</text><text x="20.04" y="1.67" class="f">etcdctl</text><text x="28.056" y="1.67" class="f">put</text><text x="32.064" y="1.67" class="f">foo</text><text x="36.072" y="1.67" class="f">bar</text></symbol><symbol id="16"><text y="1.67" class="f">[eric@localhost</text><text x="16.032" y="1.67" class="f">~]$</text><text x="20.04" y="1.67" class="f">etcdctl</text><text x="28.056" y="1.67" class="f">put</text><text x="32.064" y="1.67" class="f">foo</text><text x="36.072" y="1.67" class="f">bar</text><text x="40.08" y="1.67" class="f">--lease</text></symbol><symbol id="17"><text y="1.67" class="f">[eric@localhost</text><text x="16.032" y="1.67" class="f">~]$</text><text x="20.04" y="1.67" class="f">etcdctl</text><text x="28.056" y="1.67" class="f">put</text><text x="32.064" y="1.67" class="f">foo</text><text x="36.072" y="1.67" class="f">bar</text><text x="40.08" y="1.67" class="f">--lease</text><text x="48.096" y="1.67" class="f">694d6dff20422e09</text></symbol><symbol id="18"><text y="1.67" class="f">OK</text></symbol><symbol id="19"><text y="1.67" class="f">[eric@localhost</text><text x="16.032" y="1.67" class="f">~]$</text><text x="20.04" y="1.67" class="f">etcdctl</text><text x="28.056" y="1.67" class="f">watch</text></symbol><symbol id="20"><text y="1.67" class="f">[eric@localhost</text><text x="16.032" y="1.67" class="f">~]$</text><text x="20.04" y="1.67" class="f">etcdctl</text><text x="28.056" y="1.67" class="f">watch</text><text x="34.068" y="1.67" class="f">foo</text></symbol><symbol id="21"><text y="1.67" class="f">DELETE</text></symbol><symbol id="22"><text y="1.67" class="f">foo</text></symbol><symbol id="23"><text y="1.67" class="f">^C</text></symbol><symbol id="a"><path fill="transparent" d="M0 0h80v24H0z"/></symbol><symbol id="b"><path fill="#6f7683" d="M0 0h1.102v2.171H0z"/></symbol></defs><path class="a" d="M0 0h80v52.104H0z"/><g style="animation-duration:40.139301s;animation-iteration-count:infinite;animation-name:i;animation-timing-function:steps(1,end)"><svg width="6720"><svg><use xlink:href="#a"/><use xlink:href="#b" x="-.004"/></svg><svg x="80"><use xlink:href="#a"/><use xlink:href="#b" x="-.004"/></svg><svg x="160"><use xlink:href="#a"/><use xlink:href="#b" x="19.996"/><use xlink:href="#1"/></svg><svg x="240"><use xlink:href="#a"/><use xlink:href="#b" x="20.996"/><use xlink:href="#2"/></svg><svg x="320"><use xlink:href="#a"/><use xlink:href="#b" x="21.996"/><use xlink:href="#3"/></svg><svg x="400"><use xlink:href="#a"/><use xlink:href="#b" x="22.996"/><use xlink:href="#4"/></svg><svg x="480"><use xlink:href="#a"/><use xlink:href="#b" x="23.996"/><use xlink:href="#5"/></svg><svg x="560"><use xlink:href="#a"/><use xlink:href="#b" x="24.996"/><use xlink:href="#6"/></svg><svg x="640"><use xlink:href="#a"/><use xlink:href="#b" x="25.996"/><use xlink:href="#7"/></svg><svg x="720"><use xlink:href="#a"/><use xlink:href="#b" x="26.996"/><use xlink:href="#8"/></svg><svg x="800"><use xlink:href="#a"/><use xlink:href="#b" x="27.996"/><use xlink:href="#8"/></svg><svg x="880"><use xlink:href="#a"/><use xlink:href="#b" x="28.996"/><text y="1.67" class="f">[eric@localhost</text><text x="16.032" y="1.67" class="f">~]$</text><text x="20.04" y="1.67" class="f">etcdctl</text><text x="28.056" y="1.67" class="f">l</text></svg><svg x="960"><use xlink:href="#a"/><use xlink:href="#b" x="29.996"/><text y="1.67" class="f">[eric@localhost</text><text x="16.032" y="1.67" class="f">~]$</text><text x="20.04" y="1.67" class="f">etcdctl</text><text x="28.056" y="1.67" class="f">le</text></svg><svg x="1040"><use xlink:href="#a"/><use xlink:href="#b" x="30.996"/><text y="1.67" class="f">[eric@localhost</text><text x="16.032" y="1.67" class="f">~]$</text><text x="20.04" y="1.67" class="f">etcdctl</text><text x="28.056" y="1.67" class="f">lea</text></svg><svg x="1120"><use xlink:href="#a"/><use xlink:href="#b" x="31.996"/><text y="1.67" class="f">[eric@localhost</text><text x="16.032" y="1.67" class="f">~]$</text><text x="20.04" y="1.67" class="f">etcdctl</text><text x="28.056" y="1.67" class="f">leas</text></svg><svg x="1200"><use xlink:href="#a"/><use xlink:href="#b" x="32.996"/><use xlink:href="#9"/></svg><svg x="1280"><use xlink:href="#a"/><use xlink:href="#b" x="33.996"/><use xlink:href="#9"/></svg><svg x="1360"><use xlink:href="#a"/><use xlink:href="#b" x="34.996"/><text y="1.67" class="f">[eric@localhost</text><text x="16.032" y="1.67" class="f">~]$</text><text x="20.04" y="1.67" class="f">etcdctl</text><text x="28.056" y="1.67" class="f">lease</text><text x="34.068" y="1.67" class="f">g</text></svg><svg x="1440"><use xlink:href="#a"/><use xlink:href="#b" x="35.996"/><text y="1.67" class="f">[eric@localhost</text><text x="16.032" y="1.67" class="f">~]$</text><text x="20.04" y="1.67" class="f">etcdctl</text><text x="28.056" y="1.67" class="f">lease</text><text x="34.068" y="1.67" class="f">gr</text></svg><svg x="1520"><use xlink:href="#a"/><use xlink:href="#b" x="36.996"/><text y="1.67" class="f">[eric@localhost</text><text x="16.032" y="1.67" class="f">~]$</text><text x="20.04" y="1.67" class="f">etcdctl</text><text x="28.056" y="1.67" class="f">lease</text><text x="34.068" y="1.67" class="f">gra</text></svg><svg x="1600"><use xlink:href="#a"/><use xlink:href="#b" x="37.996"/><text y="1.67" class="f">[eric@localhost</text><text x="16.032" y="1.67" class="f">~]$</text><text x="20.04" y="1.67" class="f">etcdctl</text><text x="28.056" y="1.67" class="f">lease</text><text x="34.068" y="1.67" class="f">gran</text></svg><svg x="1680"><use xlink:href="#a"/><use xlink:href="#b" x="38.996"/><use xlink:href="#10"/></svg><svg x="1760"><use xlink:href="#a"/><use xlink:href="#b" x="39.996"/><use xlink:href="#10"/></svg><svg x="1840"><use xlink:href="#a"/><use xlink:href="#b" x="40.996"/><text y="1.67" class="f">[eric@localhost</text><text x="16.032" y="1.67" class="f">~]$</text><text x="20.04" y="1.67" class="f">etcdctl</text><text x="28.056" y="1.67" class="f">lease</text><text x="34.068" y="1.67" class="f">grant</text><text x="40.08" y="1.67" class="f">3</text></svg><svg x="1920"><use xlink:href="#a"/><use xlink:href="#b" x="41.996"/><use xlink:href="#11"/></svg><svg x="2000"><use xlink:href="#a"/><use xlink:href="#b" x="-.004" y="2.146"/><use xlink:href="#11"/></svg><svg x="2080"><use xlink:href="#a"/><use xlink:href="#b" x="-.004" y="4.317"/><use xlink:href="#11"/><use xlink:href="#12" y="2.171"/></svg><svg x="2160"><use xlink:href="#a"/><use xlink:href="#b" x="19.996" y="4.317"/><use xlink:href="#11"/><use xlink:href="#12" y="2.171"/><use xlink:href="#1" y="4.342"/></svg><svg x="2240"><use xlink:href="#a"/><use xlink:href="#b" x="20.996" y="4.317"/><use xlink:href="#11"/><use xlink:href="#12" y="2.171"/><use xlink:href="#2" y="4.342"/></svg><svg x="2320"><use xlink:href="#a"/><use xlink:href="#b" x="21.996" y="4.317"/><use xlink:href="#11"/><use xlink:href="#12" y="2.171"/><use xlink:href="#3" y="4.342"/></svg><svg x="2400"><use xlink:href="#a"/><use xlink:href="#b" x="22.996" y="4.317"/><use xlink:href="#11"/><use xlink:href="#12" y="2.171"/><use xlink:href="#4" y="4.342"/></svg><svg x="2480"><use xlink:href="#a"/><use xlink:href="#b" x="23.996" y="4.317"/><use xlink:href="#11"/><use xlink:href="#12" y="2.171"/><use xlink:href="#5" y="4.342"/></svg><svg x="2560"><use xlink:href="#a"/><use xlink:href="#b" x="24.996" y="4.317"/><use xlink:href="#11"/><use xlink:href="#12" y="2.171"/><use xlink:href="#6" y="4.342"/></svg><svg x="2640"><use xlink:href="#a"/><use xlink:href="#b" x="25.996" y="4.317"/><use xlink:href="#11"/><use xlink:href="#12" y="2.171"/><use xlink:href="#7" y="4.342"/></svg><svg x="2720"><use xlink:href="#a"/><use xlink:href="#b" x="26.996" y="4.317"/><use xlink:href="#11"/><use xlink:href="#12" y="2.171"/><use xlink:href="#8" y="4.342"/></svg><svg x="2800"><use xlink:href="#a"/><use xlink:href="#b" x="27.996" y="4.317"/><use xlink:href="#11"/><use xlink:href="#12" y="2.171"/><use xlink:href="#8" y="4.342"/></svg><svg x="2880"><use xlink:href="#a"/><use xlink:href="#b" x="28.996" y="4.317"/><use xlink:href="#11"/><use xlink:href="#12" y="2.171"/><text y="6.012" class="f">[eric@localhost</text><text x="16.032" y="6.012" class="f">~]$</text><text x="20.04" y="6.012" class="f">etcdctl</text><text x="28.056" y="6.012" class="f">p</text></svg><svg x="2960"><use xlink:href="#a"/><use xlink:href="#b" x="29.996" y="4.317"/><use xlink:href="#11"/><use xlink:href="#12" y="2.171"/><text y="6.012" class="f">[eric@localhost</text><text x="16.032" y="6.012" class="f">~]$</text><text x="20.04" y="6.012" class="f">etcdctl</text><text x="28.056" y="6.012" class="f">pu</text></svg><svg x="3040"><use xlink:href="#a"/><use xlink:href="#b" x="30.996" y="4.317"/><use xlink:href="#11"/><use xlink:href="#12" y="2.171"/><use xlink:href="#13" y="4.342"/></svg><svg x="3120"><use xlink:href="#a"/><use xlink:href="#b" x="31.996" y="4.317"/><use xlink:href="#11"/><use xlink:href="#12" y="2.171"/><use xlink:href="#13" y="4.342"/></svg><svg x="3200"><use xlink:href="#a"/><use xlink:href="#b" x="32.996" y="4.317"/><use xlink:href="#11"/><use xlink:href="#12" y="2.171"/><text y="6.012" class="f">[eric@localhost</text><text x="16.032" y="6.012" class="f">~]$</text><text x="20.04" y="6.012" class="f">etcdctl</text><text x="28.056" y="6.012" class="f">put</text><text x="32.064" y="6.012" class="f">f</text></svg><svg x="3280"><use xlink:href="#a"/><use xlink:href="#b" x="33.996" y="4.317"/><use xlink:href="#11"/><use xlink:href="#12" y="2.171"/><text y="6.012" class="f">[eric@localhost</text><text x="16.032" y="6.012" class="f">~]$</text><text x="20.04" y="6.012" class="f">etcdctl</text><text x="28.056" y="6.012" class="f">put</text><text x="32.064" y="6.012" class="f">fo</text></svg><svg x="3360"><use xlink:href="#a"/><use xlink:href="#b" x="34.996" y="4.317"/><use xlink:href="#11"/><use xlink:href="#12" y="2.171"/><use xlink:href="#14" y="4.342"/></svg><svg x="3440"><use xlink:href="#a"/><use xlink:href="#b" x="35.996" y="4.317"/><use xlink:href="#11"/><use xlink:href="#12" y="2.171"/><use xlink:href="#14" y="4.342"/></svg><svg x="3520"><use xlink:href="#a"/><use xlink:href="#b" x="36.996" y="4.317"/><use xlink:href="#11"/><use xlink:href="#12" y="2.171"/><text y="6.012" class="f">[eric@localhost</text><text x="16.032" y="6.012" class="f">~]$</text><text x="20.04" y="6.012" class="f">etcdctl</text><text x="28.056" y="6.012" class="f">put</text><text x="32.064" y="6.012" class="f">foo</text><text x="36.072" y="6.012" class="f">b</text></svg><svg x="3600"><use xlink:href="#a"/><use xlink:href="#b" x="37.996" y="4.317"/><use xlink:href="#11"/><use xlink:href="#12" y="2.171"/><text y="6.012" class="f">[eric@localhost</text><text x="16.032" y="6.012" class="f">~]$</text><text x="20.04" y="6.012" class="f">etcdctl</text><text x="28.056" y="6.012" class="f">put</text><text x="32.064" y="6.012" class="f">foo</text><text x="36.072" y="6.012" class="f">ba</text></svg><svg x="3680"><use xlink:href="#a"/><use xlink:href="#b" x="38.996" y="4.317"/><use xlink:href="#11"/><use xlink:href="#12" y="2.171"/><use xlink:href="#15" y="4.342"/></svg><svg x="3760"><use xlink:href="#a"/><use xlink:href="#b" x="39.996" y="4.317"/><use xlink:href="#11"/><use xlink:href="#12" y="2.171"/><use xlink:href="#15" y="4.342"/></svg><svg x="3840"><use xlink:href="#a"/><use xlink:href="#b" x="40.996" y="4.317"/><use xlink:href="#11"/><use xlink:href="#12" y="2.171"/><text y="6.012" class="f">[eric@localhost</text><text x="16.032" y="6.012" class="f">~]$</text><text x="20.04" y="6.012" class="f">etcdctl</text><text x="28.056" y="6.012" class="f">put</text><text x="32.064" y="6.012" class="f">foo</text><text x="36.072" y="6.012" class="f">bar</text><text x="40.08" y="6.012" class="f">-</text></svg><svg x="3920"><use xlink:href="#a"/><use xlink:href="#b" x="41.996" y="4.317"/><use xlink:href="#11"/><use xlink:href="#12" y="2.171"/><text y="6.012" class="f">[eric@localhost</text><text x="16.032" y="6.012" class="f">~]$</text><text x="20.04" y="6.012" class="f">etcdctl</text><text x="28.056" y="6.012" class="f">put</text><text x="32.064" y="6.012" class="f">foo</text><text x="36.072" y="6.012" class="f">bar</text><text x="40.08" y="6.012" class="f">--</text></svg><svg x="4000"><use xlink:href="#a"/><use xlink:href="#b" x="42.996" y="4.317"/><use xlink:href="#11"/><use xlink:href="#12" y="2.171"/><text y="6.012" class="f">[eric@localhost</text><text x="16.032" y="6.012" class="f">~]$</text><text x="20.04" y="6.012" class="f">etcdctl</text><text x="28.056" y="6.012" class="f">put</text><text x="32.064" y="6.012" class="f">foo</text><text x="36.072" y="6.012" class="f">bar</text><text x="40.08" y="6.012" class="f">--l</text></svg><svg x="4080"><use xlink:href="#a"/><use xlink:href="#b" x="43.996" y="4.317"/><use xlink:href="#11"/><use xlink:href="#12" y="2.171"/><text y="6.012" class="f">[eric@localhost</text><text x="16.032" y="6.012" class="f">~]$</text><text x="20.04" y="6.012" class="f">etcdctl</text><text x="28.056" y="6.012" class="f">put</text><text x="32.064" y="6.012" class="f">foo</text><text x="36.072" y="6.012" class="f">bar</text><text x="40.08" y="6.012" class="f">--le</text></svg><svg x="4160"><use xlink:href="#a"/><use xlink:href="#b" x="44.996" y="4.317"/><use xlink:href="#11"/><use xlink:href="#12" y="2.171"/><text y="6.012" class="f">[eric@localhost</text><text x="16.032" y="6.012" class="f">~]$</text><text x="20.04" y="6.012" class="f">etcdctl</text><text x="28.056" y="6.012" class="f">put</text><text x="32.064" y="6.012" class="f">foo</text><text x="36.072" y="6.012" class="f">bar</text><text x="40.08" y="6.012" class="f">--lea</text></svg><svg x="4240"><use xlink:href="#a"/><use xlink:href="#b" x="45.996" y="4.317"/><use xlink:href="#11"/><use xlink:href="#12" y="2.171"/><text y="6.012" class="f">[eric@localhost</text><text x="16.032" y="6.012" class="f">~]$</text><text x="20.04" y="6.012" class="f">etcdctl</text><text x="28.056" y="6.012" class="f">put</text><text x="32.064" y="6.012" class="f">foo</text><text x="36.072" y="6.012" class="f">bar</text><text x="40.08" y="6.012" class="f">--leas</text></svg><svg x="4320"><use xlink:href="#a"/><use xlink:href="#b" x="46.996" y="4.317"/><use xlink:href="#11"/><use xlink:href="#12" y="2.171"/><use xlink:href="#16" y="4.342"/></svg><svg x="4400"><use xlink:href="#a"/><use xlink:href="#b" x="47.996" y="4.317"/><use xlink:href="#11"/><use xlink:href="#12" y="2.171"/><use xlink:href="#16" y="4.342"/></svg><svg x="4480"><use xlink:href="#a"/><use xlink:href="#b" x="63.996" y="4.317"/><use xlink:href="#11"/><use xlink:href="#12" y="2.171"/><use xlink:href="#17" y="4.342"/></svg><svg x="4560"><use xlink:href="#a"/><use xlink:href="#b" x="-.004" y="6.488"/><use xlink:href="#11"/><use xlink:href="#12" y="2.171"/><use xlink:href="#17" y="4.342"/></svg><svg x="4640"><use xlink:href="#a"/><use xlink:href="#b" x="-.004" y="8.659"/><use xlink:href="#11"/><use xlink:href="#12" y="2.171"/><use xlink:href="#17" y="4.342"/><use xlink:href="#18" y="6.513"/></svg><svg x="4720"><use xlink:href="#a"/><use xlink:href="#b" x="19.996" y="8.659"/><use xlink:href="#11"/><use xlink:href="#12" y="2.171"/><use xlink:href="#17" y="4.342"/><use xlink:href="#18" y="6.513"/><use xlink:href="#1" y="8.684"/></svg><svg x="4800"><use xlink:href="#a"/><use xlink:href="#b" x="20.996" y="8.659"/><use xlink:href="#11"/><use xlink:href="#12" y="2.171"/><use xlink:href="#17" y="4.342"/><use xlink:href="#18" y="6.513"/><use xlink:href="#2" y="8.684"/></svg><svg x="4880"><use xlink:href="#a"/><use xlink:href="#b" x="21.996" y="8.659"/><use xlink:href="#11"/><use xlink:href="#12" y="2.171"/><use xlink:href="#17" y="4.342"/><use xlink:href="#18" y="6.513"/><use xlink:href="#3" y="8.684"/></svg><svg x="4960"><use xlink:href="#a"/><use xlink:href="#b" x="22.996" y="8.659"/><use xlink:href="#11"/><use xlink:href="#12" y="2.171"/><use xlink:href="#17" y="4.342"/><use xlink:href="#18" y="6.513"/><use xlink:href="#4" y="8.684"/></svg><svg x="5040"><use xlink:href="#a"/><use xlink:href="#b" x="23.996" y="8.659"/><use xlink:href="#11"/><use xlink:href="#12" y="2.171"/><use xlink:href="#17" y="4.342"/><use xlink:href="#18" y="6.513"/><use xlink:href="#5" y="8.684"/></svg><svg x="5120"><use xlink:href="#a"/><use xlink:href="#b" x="24.996" y="8.659"/><use xlink:href="#11"/><use xlink:href="#12" y="2.171"/><use xlink:href="#17" y="4.342"/><use xlink:href="#18" y="6.513"/><use xlink:href="#6" y="8.684"/></svg><svg x="5200"><use xlink:href="#a"/><use xlink:href="#b" x="25.996" y="8.659"/><use xlink:href="#11"/><use xlink:href="#12" y="2.171"/><use xlink:href="#17" y="4.342"/><use xlink:href="#18" y="6.513"/><use xlink:href="#7" y="8.684"/></svg><svg x="5280"><use xlink:href="#a"/><use xlink:href="#b" x="26.996" y="8.659"/><use xlink:href="#11"/><use xlink:href="#12" y="2.171"/><use xlink:href="#17" y="4.342"/><use xlink:href="#18" y="6.513"/><use xlink:href="#8" y="8.684"/></svg><svg x="5360"><use xlink:href="#a"/><use xlink:href="#b" x="27.996" y="8.659"/><use xlink:href="#11"/><use xlink:href="#12" y="2.171"/><use xlink:href="#17" y="4.342"/><use xlink:href="#18" y="6.513"/><use xlink:href="#8" y="8.684"/></svg><svg x="5440"><use xlink:href="#a"/><use xlink:href="#b" x="28.996" y="8.659"/><use xlink:href="#11"/><use xlink:href="#12" y="2.171"/><use xlink:href="#17" y="4.342"/><use xlink:href="#18" y="6.513"/><text y="10.354" class="f">[eric@localhost</text><text x="16.032" y="10.354" class="f">~]$</text><text x="20.04" y="10.354" class="f">etcdctl</text><text x="28.056" y="10.354" class="f">w</text></svg><svg x="5520"><use xlink:href="#a"/><use xlink:href="#b" x="29.996" y="8.659"/><use xlink:href="#11"/><use xlink:href="#12" y="2.171"/><use xlink:href="#17" y="4.342"/><use xlink:href="#18" y="6.513"/><text y="10.354" class="f">[eric@localhost</text><text x="16.032" y="10.354" class="f">~]$</text><text x="20.04" y="10.354" class="f">etcdctl</text><text x="28.056" y="10.354" class="f">wa</text></svg><svg x="5600"><use xlink:href="#a"/><use xlink:href="#b" x="30.996" y="8.659"/><use xlink:href="#11"/><use xlink:href="#12" y="2.171"/><use xlink:href="#17" y="4.342"/><use xlink:href="#18" y="6.513"/><text y="10.354" class="f">[eric@localhost</text><text x="16.032" y="10.354" class="f">~]$</text><text x="20.04" y="10.354" class="f">etcdctl</text><text x="28.056" y="10.354" class="f">wat</text></svg><svg x="5680"><use xlink:href="#a"/><use xlink:href="#b" x="31.996" y="8.659"/><use xlink:href="#11"/><use xlink:href="#12" y="2.171"/><use xlink:href="#17" y="4.342"/><use xlink:href="#18" y="6.513"/><text y="10.354" class="f">[eric@localhost</text><text x="16.032" y="10.354" class="f">~]$</text><text x="20.04" y="10.354" class="f">etcdctl</text><text x="28.056" y="10.354" class="f">watc</text></svg><svg x="5760"><use xlink:href="#a"/><use xlink:href="#b" x="32.996" y="8.659"/><use xlink:href="#11"/><use xlink:href="#12" y="2.171"/><use xlink:href="#17" y="4.342"/><use xlink:href="#18" y="6.513"/><use xlink:href="#19" y="8.684"/></svg><svg x="5840"><use xlink:href="#a"/><use xlink:href="#b" x="33.996" y="8.659"/><use xlink:href="#11"/><use xlink:href="#12" y="2.171"/><use xlink:href="#17" y="4.342"/><use xlink:href="#18" y="6.513"/><use xlink:href="#19" y="8.684"/></svg><svg x="5920"><use xlink:href="#a"/><use xlink:href="#b" x="34.996" y="8.659"/><use xlink:href="#11"/><use xlink:href="#12" y="2.171"/><use xlink:href="#17" y="4.342"/><use xlink:href="#18" y="6.513"/><text y="10.354" class="f">[eric@localhost</text><text x="16.032" y="10.354" class="f">~]$</text><text x="20.04" y="10.354" class="f">etcdctl</text><text x="28.056" y="10.354" class="f">watch</text><text x="34.068" y="10.354" class="f">f</text></svg><svg x="6000"><use xlink:href="#a"/><use xlink:href="#b" x="35.996" y="8.659"/><use xlink:href="#11"/><use xlink:href="#12" y="2.171"/><use xlink:href="#17" y="4.342"/><use xlink:href="#18" y="6.513"/><text y="10.354" class="f">[eric@localhost</text><text x="16.032" y="10.354" class="f">~]$</text><text x="20.04" y="10.354" class="f">etcdctl</text><text x="28.056" y="10.354" class="f">watch</text><text x="34.068" y="10.354" class="f">fo</text></svg><svg x="6080"><use xlink:href="#a"/><use xlink:href="#b" x="36.996" y="8.659"/><use xlink:href="#11"/><use xlink:href="#12" y="2.171"/><use xlink:href="#17" y="4.342"/><use xlink:href="#18" y="6.513"/><use xlink:href="#20" y="8.684"/></svg><svg x="6160"><use xlink:href="#a"/><use xlink:href="#b" x="-.004" y="10.83"/><use xlink:href="#11"/><use xlink:href="#12" y="2.171"/><use xlink:href="#17" y="4.342"/><use xlink:href="#18" y="6.513"/><use xlink:href="#20" y="8.684"/></svg><svg x="6240"><use xlink:href="#a"/><use xlink:href="#b" x="-.004" y="17.343"/><use xlink:href="#11"/><use xlink:href="#12" y="2.171"/><use xlink:href="#17" y="4.342"/><use xlink:href="#18" y="6.513"/><use xlink:href="#20" y="8.684"/><use xlink:href="#21" y="10.855"/><use xlink:href="#22" y="13.026"/></svg><svg x="6320"><use xlink:href="#a"/><use xlink:href="#b" x="1.996" y="17.343"/><use xlink:href="#11"/><use xlink:href="#12" y="2.171"/><use xlink:href="#17" y="4.342"/><use xlink:href="#18" y="6.513"/><use xlink:href="#20" y="8.684"/><use xlink:href="#21" y="10.855"/><use xlink:href="#22" y="13.026"/><use xlink:href="#23" y="17.368"/></svg><svg x="6400"><use xlink:href="#a"/><use xlink:href="#b" x="-.004" y="19.514"/><use xlink:href="#11"/><use xlink:href="#12" y="2.171"/><use xlink:href="#17" y="4.342"/><use xlink:href="#18" y="6.513"/><use xlink:href="#20" y="8.684"/><use xlink:href="#21" y="10.855"/><use xlink:href="#22" y="13.026"/><use xlink:href="#23" y="17.368"/></svg><svg x="6480"><use xlink:href="#a"/><use xlink:href="#b" x="-.004" y="19.514"/><use xlink:href="#11"/><use xlink:href="#12" y="2.171"/><use xlink:href="#17" y="4.342"/><use xlink:href="#18" y="6.513"/><use xlink:href="#20" y="8.684"/><use xlink:href="#21" y="10.855"/><use xlink:href="#22" y="13.026"/><use xlink:href="#23" y="17.368"/></svg><svg x="6560"><use xlink:href="#a"/><use xlink:href="#b" x="19.996" y="19.514"/><use xlink:href="#11"/><use xlink:href="#12" y="2.171"/><use xlink:href="#17" y="4.342"/><use xlink:href="#18" y="6.513"/><use xlink:href="#20" y="8.684"/><use xlink:href="#21" y="10.855"/><use xlink:href="#22" y="13.026"/><use xlink:href="#23" y="17.368"/><use xlink:href="#1" y="19.539"/></svg><svg x="6640"><use xlink:href="#a"/><use xlink:href="#b" x="-.004" y="21.685"/><use xlink:href="#11"/><use xlink:href="#12" y="2.171"/><use xlink:href="#17" y="4.342"/><use xlink:href="#18" y="6.513"/><use xlink:href="#20" y="8.684"/><use xlink:href="#21" y="10.855"/><use xlink:href="#22" y="13.026"/><use xlink:href="#23" y="17.368"/><text y="21.209" class="f">[eric@localhost</text><text x="16.032" y="21.209" class="f">~]$</text><text x="20.04" y="21.209" class="f">exit</text></svg></svg></g></g></svg></svg>